%TF.GenerationSoftware,KiCad,Pcbnew,7.0.5*%
%TF.CreationDate,2023-12-04T17:25:30-05:00*%
%TF.ProjectId,isp,6973702e-6b69-4636-9164-5f7063625858,rev?*%
%TF.SameCoordinates,Original*%
%TF.FileFunction,Copper,L2,Bot*%
%TF.FilePolarity,Positive*%
%FSLAX46Y46*%
G04 Gerber Fmt 4.6, Leading zero omitted, Abs format (unit mm)*
G04 Created by KiCad (PCBNEW 7.0.5) date 2023-12-04 17:25:30*
%MOMM*%
%LPD*%
G01*
G04 APERTURE LIST*
G04 Aperture macros list*
%AMRoundRect*
0 Rectangle with rounded corners*
0 $1 Rounding radius*
0 $2 $3 $4 $5 $6 $7 $8 $9 X,Y pos of 4 corners*
0 Add a 4 corners polygon primitive as box body*
4,1,4,$2,$3,$4,$5,$6,$7,$8,$9,$2,$3,0*
0 Add four circle primitives for the rounded corners*
1,1,$1+$1,$2,$3*
1,1,$1+$1,$4,$5*
1,1,$1+$1,$6,$7*
1,1,$1+$1,$8,$9*
0 Add four rect primitives between the rounded corners*
20,1,$1+$1,$2,$3,$4,$5,0*
20,1,$1+$1,$4,$5,$6,$7,0*
20,1,$1+$1,$6,$7,$8,$9,0*
20,1,$1+$1,$8,$9,$2,$3,0*%
G04 Aperture macros list end*
%TA.AperFunction,ComponentPad*%
%ADD10C,1.500000*%
%TD*%
%TA.AperFunction,ComponentPad*%
%ADD11R,1.600000X1.600000*%
%TD*%
%TA.AperFunction,ComponentPad*%
%ADD12O,1.600000X1.600000*%
%TD*%
%TA.AperFunction,SMDPad,CuDef*%
%ADD13R,1.000000X1.250000*%
%TD*%
%TA.AperFunction,SMDPad,CuDef*%
%ADD14RoundRect,0.250000X-0.262500X-0.450000X0.262500X-0.450000X0.262500X0.450000X-0.262500X0.450000X0*%
%TD*%
%TA.AperFunction,SMDPad,CuDef*%
%ADD15RoundRect,0.250000X-0.450000X0.262500X-0.450000X-0.262500X0.450000X-0.262500X0.450000X0.262500X0*%
%TD*%
%TA.AperFunction,SMDPad,CuDef*%
%ADD16RoundRect,0.250000X0.450000X-0.262500X0.450000X0.262500X-0.450000X0.262500X-0.450000X-0.262500X0*%
%TD*%
%TA.AperFunction,SMDPad,CuDef*%
%ADD17RoundRect,0.250000X-0.503814X-0.132583X-0.132583X-0.503814X0.503814X0.132583X0.132583X0.503814X0*%
%TD*%
%TA.AperFunction,SMDPad,CuDef*%
%ADD18RoundRect,0.150000X0.587500X0.150000X-0.587500X0.150000X-0.587500X-0.150000X0.587500X-0.150000X0*%
%TD*%
%TA.AperFunction,ComponentPad*%
%ADD19R,1.300000X1.300000*%
%TD*%
%TA.AperFunction,ComponentPad*%
%ADD20R,1.700000X1.700000*%
%TD*%
%TA.AperFunction,ComponentPad*%
%ADD21O,1.700000X1.700000*%
%TD*%
%TA.AperFunction,SMDPad,CuDef*%
%ADD22RoundRect,0.243750X0.456250X-0.243750X0.456250X0.243750X-0.456250X0.243750X-0.456250X-0.243750X0*%
%TD*%
%TA.AperFunction,SMDPad,CuDef*%
%ADD23RoundRect,0.250000X-0.400000X-0.600000X0.400000X-0.600000X0.400000X0.600000X-0.400000X0.600000X0*%
%TD*%
%TA.AperFunction,SMDPad,CuDef*%
%ADD24RoundRect,0.250000X-0.475000X0.250000X-0.475000X-0.250000X0.475000X-0.250000X0.475000X0.250000X0*%
%TD*%
%TA.AperFunction,SMDPad,CuDef*%
%ADD25RoundRect,0.250000X0.250000X0.475000X-0.250000X0.475000X-0.250000X-0.475000X0.250000X-0.475000X0*%
%TD*%
%TA.AperFunction,ViaPad*%
%ADD26C,1.300000*%
%TD*%
%TA.AperFunction,Conductor*%
%ADD27C,0.750000*%
%TD*%
G04 APERTURE END LIST*
D10*
%TO.P,SW1,*%
%TO.N,GND*%
X28960000Y-14605000D03*
X20760000Y-14605000D03*
%TO.P,SW1,1,A*%
%TO.N,Net-(J3-~{RST})*%
X26860000Y-14605000D03*
%TO.P,SW1,2,B*%
%TO.N,Net-(J4-Pin_1)*%
X24860000Y-14605000D03*
%TO.P,SW1,3,C*%
%TO.N,unconnected-(SW1-C-Pad3)*%
X22860000Y-14605000D03*
%TD*%
D11*
%TO.P,U1,1,~{RESET}/PB5*%
%TO.N,Net-(U1-~{RESET}{slash}PB5)*%
X8255000Y-6350000D03*
D12*
%TO.P,U1,2,XTAL1/PB3*%
%TO.N,UART*%
X8255000Y-8890000D03*
%TO.P,U1,3,XTAL2/PB4*%
%TO.N,Net-(D3-A)*%
X8255000Y-11430000D03*
%TO.P,U1,4,GND*%
%TO.N,GND*%
X8255000Y-13970000D03*
%TO.P,U1,5,AREF/PB0*%
%TO.N,Net-(Q1-D)*%
X15875000Y-13970000D03*
%TO.P,U1,6,PB1*%
%TO.N,Net-(D1-K)*%
X15875000Y-11430000D03*
%TO.P,U1,7,PB2*%
%TO.N,Net-(D2-K)*%
X15875000Y-8890000D03*
%TO.P,U1,8,VCC*%
%TO.N,+5V*%
X15875000Y-6350000D03*
%TD*%
D13*
%TO.P,SW2,2,2*%
%TO.N,GND*%
X1905000Y-12830000D03*
%TO.P,SW2,1,1*%
%TO.N,Net-(U1-~{RESET}{slash}PB5)*%
X1905000Y-5080000D03*
%TD*%
D14*
%TO.P,R6,1*%
%TO.N,Net-(U1-~{RESET}{slash}PB5)*%
X12422500Y-6350000D03*
%TO.P,R6,2*%
%TO.N,+5V*%
X14247500Y-6350000D03*
%TD*%
D15*
%TO.P,R5,1*%
%TO.N,Net-(D3-K)*%
X10795000Y-12422500D03*
%TO.P,R5,2*%
%TO.N,GND*%
X10795000Y-14247500D03*
%TD*%
%TO.P,R4,2*%
%TO.N,Net-(J3-MISO)*%
X21590000Y-12977500D03*
%TO.P,R4,1*%
%TO.N,Net-(J2-Pin_2)*%
X21590000Y-11152500D03*
%TD*%
D16*
%TO.P,R3,1*%
%TO.N,Net-(J2-Pin_2)*%
X23495000Y-11072500D03*
%TO.P,R3,2*%
%TO.N,Net-(D1-A)*%
X23495000Y-9247500D03*
%TD*%
D14*
%TO.P,R2,1*%
%TO.N,Net-(J2-Pin_2)*%
X19685000Y-3810000D03*
%TO.P,R2,2*%
%TO.N,Net-(D2-A)*%
X21510000Y-3810000D03*
%TD*%
D17*
%TO.P,R1,1*%
%TO.N,Net-(J1-Pin_2)*%
X5704765Y-6974765D03*
%TO.P,R1,2*%
%TO.N,UART*%
X6995235Y-8265235D03*
%TD*%
D18*
%TO.P,Q1,3,D*%
%TO.N,Net-(Q1-D)*%
X18112500Y-12065000D03*
%TO.P,Q1,2,S*%
%TO.N,Net-(J3-MISO)*%
X19987500Y-13015000D03*
%TO.P,Q1,1,G*%
%TO.N,Net-(J2-Pin_2)*%
X19987500Y-11115000D03*
%TD*%
D19*
%TO.P,J4,2,Pin_2*%
%TO.N,GND*%
X28670000Y-11430000D03*
%TO.P,J4,1,Pin_1*%
%TO.N,Net-(J4-Pin_1)*%
X26130000Y-11430000D03*
%TD*%
%TO.P,J3,1,MISO*%
%TO.N,Net-(J3-MISO)*%
X26035000Y-3810000D03*
%TO.P,J3,2,VCC*%
%TO.N,Net-(J2-Pin_2)*%
X28575000Y-3810000D03*
%TO.P,J3,3,SCK*%
%TO.N,Net-(D2-A)*%
X26035000Y-6350000D03*
%TO.P,J3,4,MOSI*%
%TO.N,Net-(D1-A)*%
X28575000Y-6350000D03*
%TO.P,J3,5,~{RST}*%
%TO.N,Net-(J3-~{RST})*%
X26035000Y-8890000D03*
%TO.P,J3,6,GND*%
%TO.N,GND*%
X28575000Y-8890000D03*
%TD*%
D20*
%TO.P,J2,1,Pin_1*%
%TO.N,+5V*%
X13970000Y-3175000D03*
D21*
%TO.P,J2,2,Pin_2*%
%TO.N,Net-(J2-Pin_2)*%
X11430000Y-3175000D03*
%TO.P,J2,3,Pin_3*%
%TO.N,+3V3*%
X8890000Y-3175000D03*
%TD*%
D19*
%TO.P,J1,1,Pin_1*%
%TO.N,+3V3*%
X5080000Y-3810000D03*
%TO.P,J1,2,Pin_2*%
%TO.N,Net-(J1-Pin_2)*%
X5080000Y-6350000D03*
%TO.P,J1,3,Pin_3*%
%TO.N,UART*%
X5080000Y-8890000D03*
%TO.P,J1,4,Pin_4*%
%TO.N,GND*%
X5080000Y-11430000D03*
%TO.P,J1,5,Pin_5*%
%TO.N,+5V*%
X5080000Y-13970000D03*
%TD*%
D22*
%TO.P,D3,1,K*%
%TO.N,Net-(D3-K)*%
X10795000Y-10765000D03*
%TO.P,D3,2,A*%
%TO.N,Net-(D3-A)*%
X10795000Y-8890000D03*
%TD*%
D23*
%TO.P,D2,1,K*%
%TO.N,Net-(D2-K)*%
X17935000Y-6350000D03*
%TO.P,D2,2,A*%
%TO.N,Net-(D2-A)*%
X21435000Y-6350000D03*
%TD*%
%TO.P,D1,1,K*%
%TO.N,Net-(D1-K)*%
X17935000Y-8890000D03*
%TO.P,D1,2,A*%
%TO.N,Net-(D1-A)*%
X21435000Y-8890000D03*
%TD*%
D24*
%TO.P,C2,1*%
%TO.N,Net-(U1-~{RESET}{slash}PB5)*%
X12700000Y-9845000D03*
%TO.P,C2,2*%
%TO.N,GND*%
X12700000Y-11745000D03*
%TD*%
D25*
%TO.P,C1,1*%
%TO.N,+5V*%
X3805000Y-15240000D03*
%TO.P,C1,2*%
%TO.N,GND*%
X1905000Y-15240000D03*
%TD*%
D26*
%TO.N,Net-(J3-MISO)*%
X23495000Y-3810000D03*
X23495000Y-12977500D03*
%TD*%
D27*
%TO.N,+5V*%
X14247500Y-6350000D02*
X14247500Y-14327500D01*
X14247500Y-14327500D02*
X12700000Y-15875000D01*
X12700000Y-15875000D02*
X6985000Y-15875000D01*
X6985000Y-15875000D02*
X5080000Y-13970000D01*
%TO.N,Net-(J3-~{RST})*%
X27385000Y-10240000D02*
X26035000Y-8890000D01*
X27385000Y-13255000D02*
X27385000Y-10240000D01*
X26860000Y-13780000D02*
X27385000Y-13255000D01*
X26860000Y-14605000D02*
X26860000Y-13780000D01*
%TO.N,Net-(J4-Pin_1)*%
X26130000Y-12605000D02*
X26130000Y-11430000D01*
X24860000Y-13875000D02*
X26130000Y-12605000D01*
X24860000Y-14605000D02*
X24860000Y-13875000D01*
%TO.N,GND*%
X12700000Y-13335000D02*
X11787500Y-14247500D01*
X12700000Y-11745000D02*
X12700000Y-13335000D01*
X11787500Y-14247500D02*
X10795000Y-14247500D01*
X8532500Y-14247500D02*
X8255000Y-13970000D01*
X10795000Y-14247500D02*
X8532500Y-14247500D01*
%TO.N,Net-(D3-K)*%
X10795000Y-10765000D02*
X10795000Y-12422500D01*
%TO.N,Net-(D3-A)*%
X8255000Y-11430000D02*
X10795000Y-8890000D01*
%TO.N,Net-(J2-Pin_2)*%
X26035000Y-1270000D02*
X28575000Y-3810000D01*
X12700000Y-1270000D02*
X26035000Y-1270000D01*
X11430000Y-2540000D02*
X12700000Y-1270000D01*
X11430000Y-3175000D02*
X11430000Y-2540000D01*
%TO.N,Net-(D1-K)*%
X17935000Y-9370000D02*
X15875000Y-11430000D01*
X17935000Y-8890000D02*
X17935000Y-9370000D01*
%TO.N,Net-(D2-K)*%
X15875000Y-8410000D02*
X15875000Y-8890000D01*
X17935000Y-6350000D02*
X15875000Y-8410000D01*
%TO.N,Net-(Q1-D)*%
X17780000Y-12065000D02*
X15875000Y-13970000D01*
X18112500Y-12065000D02*
X17780000Y-12065000D01*
X15875000Y-13970000D02*
X16207500Y-13970000D01*
%TO.N,+3V3*%
X5715000Y-3175000D02*
X5080000Y-3810000D01*
X8890000Y-3175000D02*
X5715000Y-3175000D01*
%TO.N,+5V*%
X3810000Y-15240000D02*
X5080000Y-13970000D01*
X3805000Y-15240000D02*
X3810000Y-15240000D01*
%TO.N,Net-(U1-~{RESET}{slash}PB5)*%
X6985000Y-5080000D02*
X8255000Y-6350000D01*
X1905000Y-5080000D02*
X6985000Y-5080000D01*
%TO.N,UART*%
X5080000Y-8890000D02*
X7620000Y-8890000D01*
X7620000Y-8890000D02*
X6995235Y-8265235D01*
X8255000Y-8890000D02*
X7620000Y-8890000D01*
%TO.N,Net-(J1-Pin_2)*%
X5704765Y-6974765D02*
X5080000Y-6350000D01*
%TO.N,Net-(U1-~{RESET}{slash}PB5)*%
X12357500Y-6285000D02*
X12422500Y-6350000D01*
X8255000Y-6350000D02*
X8320000Y-6285000D01*
X8320000Y-6285000D02*
X12357500Y-6285000D01*
%TO.N,Net-(J3-MISO)*%
X26035000Y-3810000D02*
X23495000Y-3810000D01*
%TO.N,Net-(D2-A)*%
X26035000Y-6350000D02*
X21435000Y-6350000D01*
%TO.N,Net-(D1-A)*%
X27260000Y-7665000D02*
X25062500Y-7665000D01*
X28575000Y-6350000D02*
X27260000Y-7665000D01*
%TO.N,Net-(D2-A)*%
X26115000Y-6350000D02*
X26130000Y-6365000D01*
%TO.N,Net-(J3-MISO)*%
X23495000Y-3810000D02*
X23510000Y-3825000D01*
X23495000Y-12977500D02*
X21590000Y-12977500D01*
%TO.N,Net-(D1-A)*%
X23495000Y-9247500D02*
X25062500Y-7680000D01*
X21792500Y-9247500D02*
X21435000Y-8890000D01*
X23495000Y-9247500D02*
X21792500Y-9247500D01*
%TO.N,Net-(U1-~{RESET}{slash}PB5)*%
X12700000Y-6627500D02*
X12422500Y-6350000D01*
X12700000Y-9845000D02*
X12700000Y-6627500D01*
%TO.N,+5V*%
X15240000Y-6350000D02*
X15875000Y-6350000D01*
X14247500Y-6350000D02*
X15240000Y-6350000D01*
%TO.N,Net-(J2-Pin_2)*%
X19685000Y-1270000D02*
X19685000Y-3810000D01*
%TO.N,+5V*%
X15875000Y-4445000D02*
X15875000Y-6350000D01*
X14605000Y-3175000D02*
X15875000Y-4445000D01*
X13970000Y-3175000D02*
X14605000Y-3175000D01*
%TO.N,Net-(D1-K)*%
X15875000Y-11430000D02*
X16030000Y-11430000D01*
%TO.N,Net-(D2-K)*%
X15875000Y-8890000D02*
X16030000Y-8890000D01*
%TO.N,Net-(D2-A)*%
X21510000Y-6275000D02*
X21435000Y-6350000D01*
X21510000Y-3810000D02*
X21510000Y-6275000D01*
%TO.N,Net-(J3-MISO)*%
X21552500Y-13015000D02*
X21590000Y-12977500D01*
X19352500Y-13015000D02*
X21552500Y-13015000D01*
%TO.N,Net-(J2-Pin_2)*%
X19685000Y-10782500D02*
X19352500Y-11115000D01*
X19685000Y-3810000D02*
X19685000Y-10782500D01*
X19352500Y-11115000D02*
X23452500Y-11115000D01*
X23452500Y-11115000D02*
X23495000Y-11072500D01*
%TD*%
%TA.AperFunction,Conductor*%
%TO.N,GND*%
G36*
X9570485Y-14604727D02*
G01*
X9601210Y-14656982D01*
X9603364Y-14656269D01*
X9660435Y-14828496D01*
X9662837Y-14898324D01*
X9627105Y-14958366D01*
X9564585Y-14989559D01*
X9542729Y-14991500D01*
X9364946Y-14991500D01*
X9297907Y-14971815D01*
X9252152Y-14919011D01*
X9242208Y-14849853D01*
X9263371Y-14796376D01*
X9384055Y-14624022D01*
X9438632Y-14580398D01*
X9508131Y-14573205D01*
X9570485Y-14604727D01*
G37*
%TD.AperFunction*%
%TA.AperFunction,Conductor*%
G36*
X12893039Y-11514685D02*
G01*
X12938794Y-11567489D01*
X12950000Y-11619000D01*
X12950000Y-12744999D01*
X13224972Y-12744999D01*
X13224975Y-12744998D01*
X13227378Y-12744753D01*
X13227899Y-12744849D01*
X13228134Y-12744838D01*
X13228136Y-12744893D01*
X13296073Y-12757512D01*
X13346965Y-12805384D01*
X13364000Y-12868109D01*
X13364000Y-13910179D01*
X13344315Y-13977218D01*
X13327681Y-13997860D01*
X12370361Y-14955181D01*
X12309038Y-14988666D01*
X12282680Y-14991500D01*
X12047271Y-14991500D01*
X11980232Y-14971815D01*
X11934477Y-14919011D01*
X11924533Y-14849853D01*
X11929565Y-14828496D01*
X11984505Y-14662697D01*
X11984506Y-14662690D01*
X11994999Y-14559986D01*
X11995000Y-14559973D01*
X11995000Y-14497500D01*
X10669000Y-14497500D01*
X10601961Y-14477815D01*
X10556206Y-14425011D01*
X10545000Y-14373500D01*
X10545000Y-14121500D01*
X10564685Y-14054461D01*
X10617489Y-14008706D01*
X10669000Y-13997500D01*
X11994998Y-13997500D01*
X11994999Y-13935028D01*
X11994998Y-13935013D01*
X11984505Y-13832302D01*
X11929358Y-13665880D01*
X11929356Y-13665875D01*
X11837315Y-13516654D01*
X11749352Y-13428691D01*
X11715867Y-13367368D01*
X11720851Y-13297676D01*
X11749348Y-13253333D01*
X11844030Y-13158652D01*
X11937115Y-13007738D01*
X11992887Y-12839426D01*
X11992888Y-12839415D01*
X11993296Y-12837514D01*
X11993875Y-12836444D01*
X11995017Y-12832999D01*
X11995631Y-12833202D01*
X12026576Y-12776080D01*
X12087787Y-12742390D01*
X12127154Y-12740109D01*
X12175021Y-12744999D01*
X12449999Y-12744999D01*
X12450000Y-12744998D01*
X12450000Y-11619000D01*
X12469685Y-11551961D01*
X12522489Y-11506206D01*
X12574000Y-11495000D01*
X12826000Y-11495000D01*
X12893039Y-11514685D01*
G37*
%TD.AperFunction*%
%TA.AperFunction,Conductor*%
G36*
X7303679Y-9793185D02*
G01*
X7324321Y-9809819D01*
X7410700Y-9896198D01*
X7598251Y-10027523D01*
X7641345Y-10047618D01*
X7693784Y-10093791D01*
X7712936Y-10160984D01*
X7692720Y-10227865D01*
X7641345Y-10272382D01*
X7598251Y-10292476D01*
X7473126Y-10380090D01*
X7410700Y-10423802D01*
X7410698Y-10423803D01*
X7410695Y-10423806D01*
X7248806Y-10585695D01*
X7117476Y-10773252D01*
X7117475Y-10773254D01*
X7020718Y-10980750D01*
X7020714Y-10980761D01*
X6961457Y-11201910D01*
X6961456Y-11201918D01*
X6941502Y-11429998D01*
X6941502Y-11430001D01*
X6961456Y-11658081D01*
X6961457Y-11658089D01*
X7020714Y-11879238D01*
X7020718Y-11879249D01*
X7107335Y-12064999D01*
X7117477Y-12086749D01*
X7248802Y-12274300D01*
X7410700Y-12436198D01*
X7583517Y-12557206D01*
X7598251Y-12567523D01*
X7651401Y-12592307D01*
X7703840Y-12638479D01*
X7722992Y-12705673D01*
X7702776Y-12772554D01*
X7651401Y-12817071D01*
X7602517Y-12839865D01*
X7416179Y-12970342D01*
X7255342Y-13131179D01*
X7124865Y-13317517D01*
X7028734Y-13523673D01*
X7028730Y-13523682D01*
X6976127Y-13719999D01*
X6976128Y-13720000D01*
X7939314Y-13720000D01*
X7927359Y-13731955D01*
X7869835Y-13844852D01*
X7850014Y-13970000D01*
X7869835Y-14095148D01*
X7927359Y-14208045D01*
X7939314Y-14220000D01*
X6976128Y-14220000D01*
X7001544Y-14314856D01*
X6999881Y-14384706D01*
X6960718Y-14442568D01*
X6896490Y-14470072D01*
X6827588Y-14458485D01*
X6794088Y-14434630D01*
X6274819Y-13915361D01*
X6241334Y-13854038D01*
X6238500Y-13827680D01*
X6238500Y-13271362D01*
X6238499Y-13271345D01*
X6235157Y-13240270D01*
X6231989Y-13210799D01*
X6231134Y-13208507D01*
X6193594Y-13107859D01*
X6180889Y-13073796D01*
X6093261Y-12956739D01*
X5976204Y-12869111D01*
X5973518Y-12868109D01*
X5839204Y-12818011D01*
X5831813Y-12816265D01*
X5771097Y-12781691D01*
X5738711Y-12719781D01*
X5744938Y-12650189D01*
X5787800Y-12595011D01*
X5831826Y-12574908D01*
X5837383Y-12573595D01*
X5972086Y-12523354D01*
X5972093Y-12523350D01*
X6087187Y-12437190D01*
X6087190Y-12437187D01*
X6173350Y-12322093D01*
X6173354Y-12322086D01*
X6223596Y-12187379D01*
X6223598Y-12187372D01*
X6229999Y-12127844D01*
X6230000Y-12127827D01*
X6230000Y-11680000D01*
X5513686Y-11680000D01*
X5539493Y-11639844D01*
X5580000Y-11501889D01*
X5580000Y-11358111D01*
X5539493Y-11220156D01*
X5513686Y-11180000D01*
X6230000Y-11180000D01*
X6230000Y-10732172D01*
X6229999Y-10732155D01*
X6223598Y-10672627D01*
X6223596Y-10672620D01*
X6173354Y-10537913D01*
X6173350Y-10537906D01*
X6087190Y-10422812D01*
X6087187Y-10422809D01*
X5972093Y-10336649D01*
X5972086Y-10336645D01*
X5837379Y-10286403D01*
X5831817Y-10285089D01*
X5771100Y-10250518D01*
X5738712Y-10188608D01*
X5744936Y-10119016D01*
X5787796Y-10063837D01*
X5831820Y-10043732D01*
X5839194Y-10041989D01*
X5839201Y-10041989D01*
X5839207Y-10041986D01*
X5839210Y-10041986D01*
X5877985Y-10027523D01*
X5976204Y-9990889D01*
X6093261Y-9903261D01*
X6153202Y-9823188D01*
X6209136Y-9781318D01*
X6252469Y-9773500D01*
X7236640Y-9773500D01*
X7303679Y-9793185D01*
G37*
%TD.AperFunction*%
%TA.AperFunction,Conductor*%
G36*
X30422539Y-20185D02*
G01*
X30468294Y-72989D01*
X30479500Y-124500D01*
X30479500Y-17655500D01*
X30459815Y-17722539D01*
X30407011Y-17768294D01*
X30355500Y-17779500D01*
X124500Y-17779500D01*
X57461Y-17759815D01*
X11706Y-17707011D01*
X500Y-17655500D01*
X500Y-15490000D01*
X905001Y-15490000D01*
X905001Y-15764986D01*
X915494Y-15867697D01*
X970641Y-16034119D01*
X970643Y-16034124D01*
X1062684Y-16183345D01*
X1186654Y-16307315D01*
X1335875Y-16399356D01*
X1335880Y-16399358D01*
X1502302Y-16454505D01*
X1502309Y-16454506D01*
X1605019Y-16464999D01*
X1654999Y-16464998D01*
X1655000Y-16464998D01*
X1655000Y-15490000D01*
X905001Y-15490000D01*
X500Y-15490000D01*
X500Y-13080000D01*
X905000Y-13080000D01*
X905000Y-13502844D01*
X911401Y-13562372D01*
X911403Y-13562379D01*
X961645Y-13697086D01*
X961649Y-13697093D01*
X1047809Y-13812187D01*
X1047812Y-13812190D01*
X1162906Y-13898350D01*
X1162913Y-13898354D01*
X1217297Y-13918638D01*
X1273231Y-13960509D01*
X1297648Y-14025973D01*
X1282797Y-14094246D01*
X1239062Y-14140358D01*
X1186656Y-14172682D01*
X1062684Y-14296654D01*
X970643Y-14445875D01*
X970641Y-14445880D01*
X915494Y-14612302D01*
X915493Y-14612309D01*
X905000Y-14715013D01*
X905000Y-14990000D01*
X1655000Y-14990000D01*
X1655000Y-13080000D01*
X905000Y-13080000D01*
X500Y-13080000D01*
X500Y-12580000D01*
X905000Y-12580000D01*
X1655000Y-12580000D01*
X1655000Y-11705000D01*
X2155000Y-11705000D01*
X2155000Y-12580000D01*
X2905000Y-12580000D01*
X2905000Y-12157172D01*
X2904999Y-12157155D01*
X2898598Y-12097627D01*
X2898596Y-12097620D01*
X2848354Y-11962913D01*
X2848350Y-11962906D01*
X2762190Y-11847812D01*
X2762187Y-11847809D01*
X2647093Y-11761649D01*
X2647086Y-11761645D01*
X2512379Y-11711403D01*
X2512372Y-11711401D01*
X2452844Y-11705000D01*
X2155000Y-11705000D01*
X1655000Y-11705000D01*
X1357155Y-11705000D01*
X1297627Y-11711401D01*
X1297620Y-11711403D01*
X1162913Y-11761645D01*
X1162906Y-11761649D01*
X1047812Y-11847809D01*
X1047809Y-11847812D01*
X961649Y-11962906D01*
X961645Y-11962913D01*
X911403Y-12097620D01*
X911401Y-12097627D01*
X905000Y-12157155D01*
X905000Y-12580000D01*
X500Y-12580000D01*
X500Y-5753654D01*
X896500Y-5753654D01*
X903011Y-5814202D01*
X903011Y-5814204D01*
X954111Y-5951204D01*
X1041739Y-6068261D01*
X1158796Y-6155889D01*
X1295799Y-6206989D01*
X1323050Y-6209918D01*
X1356345Y-6213499D01*
X1356362Y-6213500D01*
X2453638Y-6213500D01*
X2453654Y-6213499D01*
X2480692Y-6210591D01*
X2514201Y-6206989D01*
X2651204Y-6155889D01*
X2768261Y-6068261D01*
X2809487Y-6013188D01*
X2865421Y-5971318D01*
X2908754Y-5963500D01*
X3797500Y-5963500D01*
X3864539Y-5983185D01*
X3910294Y-6035989D01*
X3921500Y-6087500D01*
X3921500Y-7048654D01*
X3928011Y-7109202D01*
X3928011Y-7109204D01*
X3974373Y-7233500D01*
X3979111Y-7246204D01*
X4066739Y-7363261D01*
X4183796Y-7450889D01*
X4242687Y-7472854D01*
X4325703Y-7503819D01*
X4381636Y-7545691D01*
X4406052Y-7611155D01*
X4391200Y-7679428D01*
X4341794Y-7728833D01*
X4325703Y-7736181D01*
X4183795Y-7789111D01*
X4066739Y-7876739D01*
X3979111Y-7993795D01*
X3928011Y-8130795D01*
X3928011Y-8130797D01*
X3921500Y-8191345D01*
X3921500Y-9588654D01*
X3928011Y-9649202D01*
X3928011Y-9649204D01*
X3961144Y-9738034D01*
X3979111Y-9786204D01*
X4066739Y-9903261D01*
X4183796Y-9990889D01*
X4260564Y-10019522D01*
X4320795Y-10041988D01*
X4328180Y-10043733D01*
X4388898Y-10078303D01*
X4421287Y-10140213D01*
X4415064Y-10209804D01*
X4372204Y-10264984D01*
X4328184Y-10285088D01*
X4322624Y-10286401D01*
X4187913Y-10336645D01*
X4187906Y-10336649D01*
X4072812Y-10422809D01*
X4072809Y-10422812D01*
X3986649Y-10537906D01*
X3986645Y-10537913D01*
X3936403Y-10672620D01*
X3936401Y-10672627D01*
X3930000Y-10732155D01*
X3930000Y-11180000D01*
X4646314Y-11180000D01*
X4620507Y-11220156D01*
X4580000Y-11358111D01*
X4580000Y-11501889D01*
X4620507Y-11639844D01*
X4646314Y-11680000D01*
X3930000Y-11680000D01*
X3930000Y-12127844D01*
X3936401Y-12187372D01*
X3936403Y-12187379D01*
X3986645Y-12322086D01*
X3986649Y-12322093D01*
X4072809Y-12437187D01*
X4072812Y-12437190D01*
X4187906Y-12523350D01*
X4187913Y-12523354D01*
X4322621Y-12573597D01*
X4328175Y-12574909D01*
X4388894Y-12609476D01*
X4421286Y-12671384D01*
X4415066Y-12740976D01*
X4372208Y-12796158D01*
X4328188Y-12816264D01*
X4320800Y-12818009D01*
X4183795Y-12869111D01*
X4066739Y-12956739D01*
X3979111Y-13073795D01*
X3928011Y-13210795D01*
X3928011Y-13210797D01*
X3921500Y-13271345D01*
X3921499Y-13271362D01*
X3921499Y-13827678D01*
X3901814Y-13894718D01*
X3885181Y-13915358D01*
X3830360Y-13970180D01*
X3769037Y-14003666D01*
X3742679Y-14006500D01*
X3504463Y-14006500D01*
X3504446Y-14006501D01*
X3400572Y-14017113D01*
X3232264Y-14072884D01*
X3232259Y-14072886D01*
X3081346Y-14165971D01*
X2955970Y-14291347D01*
X2955968Y-14291350D01*
X2955541Y-14292043D01*
X2955123Y-14292418D01*
X2951489Y-14297015D01*
X2950703Y-14296393D01*
X2903591Y-14338764D01*
X2834627Y-14349983D01*
X2770547Y-14322136D01*
X2752739Y-14301578D01*
X2751798Y-14302323D01*
X2747316Y-14296655D01*
X2623344Y-14172683D01*
X2623340Y-14172680D01*
X2570938Y-14140358D01*
X2524213Y-14088411D01*
X2512992Y-14019448D01*
X2540835Y-13955366D01*
X2592703Y-13918638D01*
X2647084Y-13898355D01*
X2647093Y-13898350D01*
X2762187Y-13812190D01*
X2762190Y-13812187D01*
X2848350Y-13697093D01*
X2848354Y-13697086D01*
X2898596Y-13562379D01*
X2898598Y-13562372D01*
X2904999Y-13502844D01*
X2905000Y-13502827D01*
X2905000Y-13080000D01*
X2155000Y-13080000D01*
X2155000Y-16464999D01*
X2204972Y-16464999D01*
X2204986Y-16464998D01*
X2307697Y-16454505D01*
X2474119Y-16399358D01*
X2474124Y-16399356D01*
X2623345Y-16307315D01*
X2747316Y-16183344D01*
X2751798Y-16177677D01*
X2753991Y-16179411D01*
X2796357Y-16141265D01*
X2865314Y-16130008D01*
X2929410Y-16157818D01*
X2951334Y-16183106D01*
X2951489Y-16182985D01*
X2954183Y-16186392D01*
X2955545Y-16187963D01*
X2955970Y-16188652D01*
X3081348Y-16314030D01*
X3232262Y-16407115D01*
X3400574Y-16462887D01*
X3504455Y-16473500D01*
X4105544Y-16473499D01*
X4209426Y-16462887D01*
X4377738Y-16407115D01*
X4528652Y-16314030D01*
X4654030Y-16188652D01*
X4747115Y-16037738D01*
X4802887Y-15869426D01*
X4813500Y-15765545D01*
X4813499Y-15537319D01*
X4833183Y-15470280D01*
X4849809Y-15449647D01*
X4992321Y-15307135D01*
X5053642Y-15273653D01*
X5123334Y-15278637D01*
X5167681Y-15307138D01*
X6304197Y-16443654D01*
X6316833Y-16458448D01*
X6324815Y-16469434D01*
X6375439Y-16515016D01*
X6377795Y-16517252D01*
X6393016Y-16532473D01*
X6409730Y-16546007D01*
X6412201Y-16548117D01*
X6434853Y-16568512D01*
X6462831Y-16593704D01*
X6474587Y-16600491D01*
X6490619Y-16611510D01*
X6501161Y-16620047D01*
X6561824Y-16650956D01*
X6564678Y-16652505D01*
X6623669Y-16686564D01*
X6636574Y-16690757D01*
X6654542Y-16698199D01*
X6666637Y-16704362D01*
X6666639Y-16704362D01*
X6666640Y-16704363D01*
X6678164Y-16707450D01*
X6732441Y-16721993D01*
X6735520Y-16722906D01*
X6800298Y-16743954D01*
X6813795Y-16745372D01*
X6832921Y-16748918D01*
X6842157Y-16751392D01*
X6846029Y-16752430D01*
X6914058Y-16755994D01*
X6917261Y-16756246D01*
X6938694Y-16758500D01*
X6960226Y-16758500D01*
X6963469Y-16758584D01*
X7031493Y-16762150D01*
X7044896Y-16760027D01*
X7064296Y-16758500D01*
X12620704Y-16758500D01*
X12640103Y-16760026D01*
X12653507Y-16762150D01*
X12721530Y-16758584D01*
X12724774Y-16758500D01*
X12746306Y-16758500D01*
X12767734Y-16756247D01*
X12770943Y-16755994D01*
X12838971Y-16752430D01*
X12852073Y-16748918D01*
X12871211Y-16745372D01*
X12877036Y-16744759D01*
X12884702Y-16743954D01*
X12934104Y-16727901D01*
X12949479Y-16722906D01*
X12952563Y-16721991D01*
X13018363Y-16704362D01*
X13030451Y-16698202D01*
X13048423Y-16690757D01*
X13061331Y-16686564D01*
X13120347Y-16652489D01*
X13123117Y-16650985D01*
X13183839Y-16620047D01*
X13194391Y-16611501D01*
X13210412Y-16600490D01*
X13222169Y-16593704D01*
X13222172Y-16593700D01*
X13222174Y-16593700D01*
X13233704Y-16583317D01*
X13272812Y-16548103D01*
X13275227Y-16546042D01*
X13291986Y-16532472D01*
X13307240Y-16517216D01*
X13309542Y-16515031D01*
X13360185Y-16469434D01*
X13368165Y-16458449D01*
X13380794Y-16443662D01*
X14816162Y-15008294D01*
X14830950Y-14995664D01*
X14841934Y-14987685D01*
X14849376Y-14979419D01*
X14908863Y-14942769D01*
X14978720Y-14944098D01*
X15026339Y-14972967D01*
X15026550Y-14972716D01*
X15028179Y-14974083D01*
X15029210Y-14974708D01*
X15030700Y-14976198D01*
X15218251Y-15107523D01*
X15277262Y-15135040D01*
X15425750Y-15204281D01*
X15425752Y-15204281D01*
X15425757Y-15204284D01*
X15646913Y-15263543D01*
X15809832Y-15277796D01*
X15874998Y-15283498D01*
X15875000Y-15283498D01*
X15875002Y-15283498D01*
X15932021Y-15278509D01*
X16103087Y-15263543D01*
X16324243Y-15204284D01*
X16531749Y-15107523D01*
X16719300Y-14976198D01*
X16881198Y-14814300D01*
X17012523Y-14626749D01*
X17109284Y-14419243D01*
X17168543Y-14198087D01*
X17188498Y-13970000D01*
X17188385Y-13968720D01*
X17188498Y-13968162D01*
X17188498Y-13964585D01*
X17189217Y-13964585D01*
X17202147Y-13900219D01*
X17224229Y-13870226D01*
X18113400Y-12981056D01*
X18174721Y-12947573D01*
X18188096Y-12945421D01*
X18297202Y-12933954D01*
X18306681Y-12930873D01*
X18376520Y-12928877D01*
X18436354Y-12964956D01*
X18467183Y-13027656D01*
X18469000Y-13048804D01*
X18469000Y-13107859D01*
X18507612Y-13289520D01*
X18507614Y-13289525D01*
X18583151Y-13459181D01*
X18583152Y-13459183D01*
X18626128Y-13518335D01*
X18692316Y-13609436D01*
X18754999Y-13665875D01*
X18830331Y-13733704D01*
X18991169Y-13826564D01*
X18991171Y-13826564D01*
X18991174Y-13826566D01*
X19044832Y-13844000D01*
X19167798Y-13883954D01*
X19306194Y-13898500D01*
X19515583Y-13898500D01*
X19582622Y-13918185D01*
X19628377Y-13970989D01*
X19638321Y-14040147D01*
X19627965Y-14074905D01*
X19580898Y-14175840D01*
X19580894Y-14175849D01*
X19524289Y-14387105D01*
X19524287Y-14387115D01*
X19505225Y-14604999D01*
X19505225Y-14605000D01*
X19524287Y-14822884D01*
X19524289Y-14822894D01*
X19580894Y-15034150D01*
X19580898Y-15034159D01*
X19673335Y-15232391D01*
X19716873Y-15294571D01*
X19716874Y-15294572D01*
X20157452Y-14853993D01*
X20167188Y-14883956D01*
X20255186Y-15022619D01*
X20374903Y-15135040D01*
X20509510Y-15209041D01*
X20070426Y-15648124D01*
X20132611Y-15691666D01*
X20132613Y-15691667D01*
X20330840Y-15784101D01*
X20330849Y-15784105D01*
X20542105Y-15840710D01*
X20542115Y-15840712D01*
X20759999Y-15859775D01*
X20760001Y-15859775D01*
X20977884Y-15840712D01*
X20977894Y-15840710D01*
X21189150Y-15784105D01*
X21189159Y-15784101D01*
X21387387Y-15691666D01*
X21449572Y-15648124D01*
X21007534Y-15206086D01*
X21075629Y-15179126D01*
X21208492Y-15082595D01*
X21313175Y-14956055D01*
X21361631Y-14853079D01*
X21806706Y-15298154D01*
X21820599Y-15314711D01*
X21892245Y-15417030D01*
X21892251Y-15417038D01*
X22047962Y-15572749D01*
X22228346Y-15699056D01*
X22427924Y-15792120D01*
X22640629Y-15849115D01*
X22797322Y-15862823D01*
X22859998Y-15868307D01*
X22860000Y-15868307D01*
X22860002Y-15868307D01*
X22914842Y-15863509D01*
X23079371Y-15849115D01*
X23292076Y-15792120D01*
X23491654Y-15699056D01*
X23672038Y-15572749D01*
X23772318Y-15472468D01*
X23833642Y-15438983D01*
X23903334Y-15443967D01*
X23947681Y-15472468D01*
X24047962Y-15572749D01*
X24228346Y-15699056D01*
X24427924Y-15792120D01*
X24640629Y-15849115D01*
X24797322Y-15862823D01*
X24859998Y-15868307D01*
X24860000Y-15868307D01*
X24860002Y-15868307D01*
X24914842Y-15863509D01*
X25079371Y-15849115D01*
X25292076Y-15792120D01*
X25491654Y-15699056D01*
X25672038Y-15572749D01*
X25772318Y-15472468D01*
X25833642Y-15438983D01*
X25903334Y-15443967D01*
X25947681Y-15472468D01*
X26047962Y-15572749D01*
X26228346Y-15699056D01*
X26427924Y-15792120D01*
X26640629Y-15849115D01*
X26797322Y-15862823D01*
X26859998Y-15868307D01*
X26860000Y-15868307D01*
X26860002Y-15868307D01*
X26914842Y-15863509D01*
X27079371Y-15849115D01*
X27292076Y-15792120D01*
X27491654Y-15699056D01*
X27672038Y-15572749D01*
X27827749Y-15417038D01*
X27899404Y-15314704D01*
X27913291Y-15298155D01*
X28357452Y-14853993D01*
X28367188Y-14883956D01*
X28455186Y-15022619D01*
X28574903Y-15135040D01*
X28709510Y-15209041D01*
X28270426Y-15648124D01*
X28332611Y-15691666D01*
X28332613Y-15691667D01*
X28530840Y-15784101D01*
X28530849Y-15784105D01*
X28742105Y-15840710D01*
X28742115Y-15840712D01*
X28959999Y-15859775D01*
X28960001Y-15859775D01*
X29177884Y-15840712D01*
X29177894Y-15840710D01*
X29389150Y-15784105D01*
X29389159Y-15784101D01*
X29587387Y-15691666D01*
X29649572Y-15648124D01*
X29207534Y-15206086D01*
X29275629Y-15179126D01*
X29408492Y-15082595D01*
X29513175Y-14956055D01*
X29561631Y-14853079D01*
X30003124Y-15294572D01*
X30046666Y-15232387D01*
X30139101Y-15034159D01*
X30139105Y-15034150D01*
X30195710Y-14822894D01*
X30195712Y-14822884D01*
X30214775Y-14605000D01*
X30214775Y-14604999D01*
X30195712Y-14387115D01*
X30195710Y-14387105D01*
X30139105Y-14175849D01*
X30139101Y-14175840D01*
X30046668Y-13977615D01*
X30003123Y-13915428D01*
X29562546Y-14356004D01*
X29552812Y-14326044D01*
X29464814Y-14187381D01*
X29345097Y-14074960D01*
X29210488Y-14000957D01*
X29649572Y-13561874D01*
X29649571Y-13561873D01*
X29587391Y-13518335D01*
X29389159Y-13425898D01*
X29389150Y-13425894D01*
X29177894Y-13369289D01*
X29177884Y-13369287D01*
X28960001Y-13350225D01*
X28959999Y-13350225D01*
X28742115Y-13369287D01*
X28742105Y-13369289D01*
X28530849Y-13425894D01*
X28530840Y-13425898D01*
X28441026Y-13467779D01*
X28371948Y-13478271D01*
X28308164Y-13449751D01*
X28269925Y-13391275D01*
X28264791Y-13348908D01*
X28265994Y-13325951D01*
X28266247Y-13322734D01*
X28268500Y-13301306D01*
X28268500Y-13279774D01*
X28268585Y-13276528D01*
X28268857Y-13271345D01*
X28272150Y-13208507D01*
X28270026Y-13195101D01*
X28268500Y-13175704D01*
X28268500Y-12704000D01*
X28288185Y-12636961D01*
X28340989Y-12591206D01*
X28392500Y-12580000D01*
X28420000Y-12580000D01*
X28420000Y-11865501D01*
X28527685Y-11914680D01*
X28634237Y-11930000D01*
X28705763Y-11930000D01*
X28812315Y-11914680D01*
X28920000Y-11865501D01*
X28920000Y-12580000D01*
X29367828Y-12580000D01*
X29367844Y-12579999D01*
X29427372Y-12573598D01*
X29427379Y-12573596D01*
X29562086Y-12523354D01*
X29562093Y-12523350D01*
X29677187Y-12437190D01*
X29677190Y-12437187D01*
X29763350Y-12322093D01*
X29763354Y-12322086D01*
X29813596Y-12187379D01*
X29813598Y-12187372D01*
X29819999Y-12127844D01*
X29820000Y-12127827D01*
X29820000Y-11680000D01*
X29103686Y-11680000D01*
X29129493Y-11639844D01*
X29170000Y-11501889D01*
X29170000Y-11358111D01*
X29129493Y-11220156D01*
X29103686Y-11180000D01*
X29820000Y-11180000D01*
X29820000Y-10732172D01*
X29819999Y-10732155D01*
X29813598Y-10672627D01*
X29813596Y-10672620D01*
X29763354Y-10537913D01*
X29763350Y-10537906D01*
X29677190Y-10422812D01*
X29677187Y-10422809D01*
X29562093Y-10336649D01*
X29562086Y-10336645D01*
X29427379Y-10286403D01*
X29427372Y-10286401D01*
X29367844Y-10280000D01*
X29353588Y-10280000D01*
X29286549Y-10260315D01*
X29240794Y-10207511D01*
X29230850Y-10138353D01*
X29259875Y-10074797D01*
X29318653Y-10037023D01*
X29325078Y-10035322D01*
X29332378Y-10033597D01*
X29467086Y-9983354D01*
X29467093Y-9983350D01*
X29582187Y-9897190D01*
X29582190Y-9897187D01*
X29668350Y-9782093D01*
X29668354Y-9782086D01*
X29718596Y-9647379D01*
X29718598Y-9647372D01*
X29724999Y-9587844D01*
X29725000Y-9587827D01*
X29725000Y-9140000D01*
X29008686Y-9140000D01*
X29034493Y-9099844D01*
X29075000Y-8961889D01*
X29075000Y-8818111D01*
X29034493Y-8680156D01*
X29008686Y-8640000D01*
X29725000Y-8640000D01*
X29725000Y-8192172D01*
X29724999Y-8192155D01*
X29718598Y-8132627D01*
X29718596Y-8132620D01*
X29668354Y-7997913D01*
X29668350Y-7997906D01*
X29582190Y-7882812D01*
X29582187Y-7882809D01*
X29467093Y-7796649D01*
X29467086Y-7796645D01*
X29332379Y-7746403D01*
X29326817Y-7745089D01*
X29266100Y-7710518D01*
X29233712Y-7648608D01*
X29239936Y-7579016D01*
X29282796Y-7523837D01*
X29326820Y-7503732D01*
X29334194Y-7501989D01*
X29334201Y-7501989D01*
X29334207Y-7501986D01*
X29334210Y-7501986D01*
X29395010Y-7479308D01*
X29471204Y-7450889D01*
X29588261Y-7363261D01*
X29675889Y-7246204D01*
X29726989Y-7109201D01*
X29730591Y-7075692D01*
X29733499Y-7048654D01*
X29733500Y-7048637D01*
X29733500Y-5651362D01*
X29733499Y-5651345D01*
X29727516Y-5595703D01*
X29726989Y-5590799D01*
X29675889Y-5453796D01*
X29588261Y-5336739D01*
X29471204Y-5249111D01*
X29471202Y-5249110D01*
X29471204Y-5249110D01*
X29329297Y-5196181D01*
X29273363Y-5154310D01*
X29248947Y-5088845D01*
X29263799Y-5020572D01*
X29313205Y-4971167D01*
X29329297Y-4963819D01*
X29429090Y-4926596D01*
X29471204Y-4910889D01*
X29588261Y-4823261D01*
X29675889Y-4706204D01*
X29726359Y-4570891D01*
X29726988Y-4569204D01*
X29726988Y-4569203D01*
X29726989Y-4569201D01*
X29731527Y-4526988D01*
X29733499Y-4508654D01*
X29733500Y-4508637D01*
X29733500Y-3111362D01*
X29733499Y-3111345D01*
X29730157Y-3080270D01*
X29726989Y-3050799D01*
X29721940Y-3037263D01*
X29677711Y-2918682D01*
X29675889Y-2913796D01*
X29588261Y-2796739D01*
X29471204Y-2709111D01*
X29334203Y-2658011D01*
X29273654Y-2651500D01*
X29273638Y-2651500D01*
X28717320Y-2651500D01*
X28650281Y-2631815D01*
X28629639Y-2615181D01*
X26715798Y-701340D01*
X26703160Y-686543D01*
X26695185Y-675566D01*
X26644553Y-629977D01*
X26642214Y-627756D01*
X26626990Y-612532D01*
X26626977Y-612520D01*
X26610243Y-598969D01*
X26607776Y-596862D01*
X26593259Y-583792D01*
X26557169Y-551296D01*
X26553829Y-549368D01*
X26545411Y-544507D01*
X26529376Y-533486D01*
X26518844Y-524957D01*
X26518843Y-524956D01*
X26518839Y-524953D01*
X26514384Y-522683D01*
X26458157Y-494033D01*
X26455304Y-492484D01*
X26396332Y-458436D01*
X26396325Y-458433D01*
X26383424Y-454241D01*
X26365456Y-446799D01*
X26353361Y-440637D01*
X26287572Y-423008D01*
X26284460Y-422087D01*
X26219708Y-401047D01*
X26219696Y-401045D01*
X26206202Y-399626D01*
X26187088Y-396083D01*
X26173974Y-392570D01*
X26173970Y-392569D01*
X26105957Y-389004D01*
X26102725Y-388750D01*
X26088065Y-387210D01*
X26081306Y-386500D01*
X26081302Y-386500D01*
X26059774Y-386500D01*
X26056530Y-386415D01*
X25988507Y-382850D01*
X25988506Y-382850D01*
X25988505Y-382850D01*
X25975103Y-384973D01*
X25955704Y-386500D01*
X12779290Y-386500D01*
X12759891Y-384973D01*
X12746493Y-382851D01*
X12678482Y-386415D01*
X12675239Y-386500D01*
X12653694Y-386500D01*
X12647838Y-387115D01*
X12632264Y-388751D01*
X12629033Y-389005D01*
X12561030Y-392569D01*
X12561029Y-392569D01*
X12547910Y-396084D01*
X12528798Y-399626D01*
X12515303Y-401045D01*
X12515291Y-401047D01*
X12460809Y-418749D01*
X12450534Y-422088D01*
X12447432Y-423007D01*
X12381642Y-440635D01*
X12381635Y-440638D01*
X12369537Y-446802D01*
X12351579Y-454240D01*
X12345278Y-456288D01*
X12338668Y-458436D01*
X12338663Y-458438D01*
X12300283Y-480597D01*
X12279672Y-492497D01*
X12276843Y-494033D01*
X12216159Y-524954D01*
X12216152Y-524958D01*
X12205604Y-533499D01*
X12189586Y-544508D01*
X12177832Y-551294D01*
X12127216Y-596867D01*
X12124752Y-598972D01*
X12108024Y-612519D01*
X12108004Y-612536D01*
X12092770Y-627770D01*
X12090420Y-629999D01*
X12039812Y-675567D01*
X12031831Y-686552D01*
X12019199Y-701341D01*
X10861338Y-1859202D01*
X10846549Y-1871834D01*
X10835568Y-1879812D01*
X10835563Y-1879817D01*
X10789999Y-1930420D01*
X10787770Y-1932770D01*
X10772536Y-1948004D01*
X10772518Y-1948025D01*
X10758971Y-1964752D01*
X10756867Y-1967216D01*
X10723089Y-2004732D01*
X10689967Y-2030810D01*
X10684430Y-2033806D01*
X10684422Y-2033812D01*
X10506761Y-2172092D01*
X10506756Y-2172097D01*
X10354284Y-2337723D01*
X10354276Y-2337734D01*
X10263808Y-2476206D01*
X10210662Y-2521562D01*
X10141431Y-2530986D01*
X10078095Y-2501484D01*
X10056192Y-2476206D01*
X9982515Y-2363436D01*
X9965722Y-2337732D01*
X9965719Y-2337729D01*
X9965715Y-2337723D01*
X9813243Y-2172097D01*
X9813238Y-2172092D01*
X9635577Y-2033812D01*
X9635572Y-2033808D01*
X9437580Y-1926661D01*
X9437577Y-1926659D01*
X9437574Y-1926658D01*
X9437571Y-1926657D01*
X9437569Y-1926656D01*
X9224637Y-1853556D01*
X9002569Y-1816500D01*
X8777431Y-1816500D01*
X8555362Y-1853556D01*
X8342430Y-1926656D01*
X8342419Y-1926661D01*
X8144427Y-2033808D01*
X8144422Y-2033812D01*
X7966761Y-2172092D01*
X7893676Y-2251484D01*
X7833789Y-2287474D01*
X7802447Y-2291500D01*
X5794296Y-2291500D01*
X5774896Y-2289973D01*
X5761493Y-2287850D01*
X5693469Y-2291415D01*
X5690226Y-2291500D01*
X5668694Y-2291500D01*
X5659574Y-2292458D01*
X5647276Y-2293750D01*
X5644044Y-2294004D01*
X5576032Y-2297569D01*
X5576027Y-2297570D01*
X5562910Y-2301084D01*
X5543798Y-2304626D01*
X5530303Y-2306045D01*
X5530291Y-2306047D01*
X5475809Y-2323749D01*
X5465534Y-2327088D01*
X5462431Y-2328007D01*
X5396639Y-2345636D01*
X5384544Y-2351799D01*
X5366578Y-2359241D01*
X5353670Y-2363435D01*
X5353665Y-2363437D01*
X5294702Y-2397479D01*
X5291851Y-2399028D01*
X5231165Y-2429948D01*
X5231164Y-2429949D01*
X5220612Y-2438494D01*
X5204587Y-2449508D01*
X5192833Y-2456294D01*
X5192828Y-2456298D01*
X5142221Y-2501864D01*
X5139757Y-2503969D01*
X5123014Y-2517528D01*
X5107781Y-2532760D01*
X5105429Y-2534991D01*
X5054816Y-2580563D01*
X5046832Y-2591552D01*
X5034203Y-2606338D01*
X5025366Y-2615176D01*
X4964045Y-2648665D01*
X4937680Y-2651500D01*
X4381345Y-2651500D01*
X4320797Y-2658011D01*
X4320795Y-2658011D01*
X4183795Y-2709111D01*
X4066739Y-2796739D01*
X3979111Y-2913795D01*
X3928011Y-3050795D01*
X3928011Y-3050797D01*
X3921500Y-3111345D01*
X3921500Y-4072500D01*
X3901815Y-4139539D01*
X3849011Y-4185294D01*
X3797500Y-4196500D01*
X2908754Y-4196500D01*
X2841715Y-4176815D01*
X2809487Y-4146811D01*
X2768261Y-4091739D01*
X2651204Y-4004111D01*
X2514203Y-3953011D01*
X2453654Y-3946500D01*
X2453638Y-3946500D01*
X1356362Y-3946500D01*
X1356345Y-3946500D01*
X1295797Y-3953011D01*
X1295795Y-3953011D01*
X1158795Y-4004111D01*
X1041739Y-4091739D01*
X954111Y-4208795D01*
X903011Y-4345795D01*
X903011Y-4345797D01*
X896500Y-4406345D01*
X896500Y-5753654D01*
X500Y-5753654D01*
X500Y-124500D01*
X20185Y-57461D01*
X72989Y-11706D01*
X124500Y-500D01*
X30355500Y-500D01*
X30422539Y-20185D01*
G37*
%TD.AperFunction*%
%TD*%
%TA.AperFunction,NonConductor*%
G36*
X25684719Y-2173185D02*
G01*
X25705361Y-2189819D01*
X25955361Y-2439819D01*
X25988846Y-2501142D01*
X25983862Y-2570834D01*
X25941990Y-2626767D01*
X25876526Y-2651184D01*
X25867680Y-2651500D01*
X25336345Y-2651500D01*
X25275797Y-2658011D01*
X25275795Y-2658011D01*
X25138795Y-2709111D01*
X25021739Y-2796739D01*
X24961798Y-2876811D01*
X24905864Y-2918682D01*
X24862531Y-2926500D01*
X24293504Y-2926500D01*
X24226465Y-2906815D01*
X24209966Y-2894137D01*
X24196143Y-2881536D01*
X24196141Y-2881534D01*
X24013603Y-2768513D01*
X24013600Y-2768511D01*
X23994135Y-2760970D01*
X23813397Y-2690951D01*
X23602351Y-2651500D01*
X23387649Y-2651500D01*
X23176603Y-2690951D01*
X23176600Y-2690951D01*
X23176600Y-2690952D01*
X22976399Y-2768511D01*
X22976396Y-2768513D01*
X22793860Y-2881533D01*
X22632178Y-3028925D01*
X22569373Y-3059541D01*
X22499986Y-3051343D01*
X22446047Y-3006933D01*
X22443121Y-3002415D01*
X22371530Y-2886348D01*
X22246152Y-2760970D01*
X22095238Y-2667885D01*
X22065440Y-2658011D01*
X21926927Y-2612113D01*
X21823046Y-2601500D01*
X21196962Y-2601500D01*
X21196946Y-2601501D01*
X21093072Y-2612113D01*
X20924764Y-2667884D01*
X20924759Y-2667886D01*
X20773847Y-2760970D01*
X20769408Y-2764481D01*
X20704612Y-2790619D01*
X20635970Y-2777577D01*
X20585276Y-2729494D01*
X20568500Y-2667212D01*
X20568500Y-2277500D01*
X20588185Y-2210461D01*
X20640989Y-2164706D01*
X20692500Y-2153500D01*
X25617680Y-2153500D01*
X25684719Y-2173185D01*
G37*
%TD.AperFunction*%
%TA.AperFunction,NonConductor*%
G36*
X18744539Y-2173185D02*
G01*
X18790294Y-2225989D01*
X18801500Y-2277500D01*
X18801500Y-2886799D01*
X18783039Y-2951895D01*
X18730383Y-3037263D01*
X18730383Y-3037264D01*
X18674613Y-3205570D01*
X18674613Y-3205571D01*
X18664000Y-3309447D01*
X18664000Y-4310537D01*
X18664001Y-4310553D01*
X18674613Y-4414427D01*
X18730384Y-4582735D01*
X18730387Y-4582742D01*
X18735527Y-4591075D01*
X18783038Y-4668101D01*
X18801500Y-4733198D01*
X18801500Y-4933802D01*
X18781815Y-5000841D01*
X18729011Y-5046596D01*
X18659853Y-5056540D01*
X18638497Y-5051508D01*
X18489428Y-5002113D01*
X18385546Y-4991500D01*
X17484462Y-4991500D01*
X17484446Y-4991501D01*
X17380572Y-5002113D01*
X17212264Y-5057884D01*
X17212259Y-5057886D01*
X17061349Y-5150969D01*
X16970180Y-5242138D01*
X16908856Y-5275622D01*
X16839165Y-5270638D01*
X16783232Y-5228766D01*
X16758815Y-5163301D01*
X16758499Y-5154456D01*
X16758499Y-4961989D01*
X16758499Y-4524276D01*
X16760025Y-4504898D01*
X16762149Y-4491493D01*
X16758584Y-4423481D01*
X16758500Y-4420238D01*
X16758500Y-4398693D01*
X16756248Y-4377277D01*
X16755993Y-4374037D01*
X16755325Y-4361296D01*
X16752430Y-4306029D01*
X16748918Y-4292921D01*
X16745372Y-4273795D01*
X16743954Y-4260298D01*
X16722906Y-4195520D01*
X16721993Y-4192441D01*
X16704362Y-4126637D01*
X16698199Y-4114542D01*
X16690755Y-4096569D01*
X16686564Y-4083669D01*
X16652505Y-4024678D01*
X16650956Y-4021824D01*
X16620047Y-3961161D01*
X16611510Y-3950619D01*
X16600491Y-3934587D01*
X16593704Y-3922831D01*
X16593702Y-3922829D01*
X16593700Y-3922826D01*
X16548138Y-3872224D01*
X16546030Y-3869756D01*
X16532477Y-3853020D01*
X16532468Y-3853010D01*
X16517242Y-3837784D01*
X16515007Y-3835429D01*
X16469434Y-3784815D01*
X16469432Y-3784813D01*
X16458450Y-3776834D01*
X16443657Y-3764199D01*
X15364819Y-2685361D01*
X15331334Y-2624038D01*
X15328500Y-2597680D01*
X15328500Y-2277500D01*
X15348185Y-2210461D01*
X15400989Y-2164706D01*
X15452500Y-2153500D01*
X18677500Y-2153500D01*
X18744539Y-2173185D01*
G37*
%TD.AperFunction*%
%TA.AperFunction,NonConductor*%
G36*
X10241905Y-3848515D02*
G01*
X10263804Y-3873787D01*
X10354278Y-4012268D01*
X10354283Y-4012273D01*
X10354284Y-4012276D01*
X10506756Y-4177902D01*
X10506760Y-4177906D01*
X10684424Y-4316189D01*
X10684425Y-4316189D01*
X10684427Y-4316191D01*
X10797305Y-4377277D01*
X10882426Y-4423342D01*
X11095365Y-4496444D01*
X11317431Y-4533500D01*
X11542569Y-4533500D01*
X11764635Y-4496444D01*
X11977574Y-4423342D01*
X12175576Y-4316189D01*
X12353240Y-4177906D01*
X12416452Y-4109239D01*
X12476337Y-4073250D01*
X12546175Y-4075349D01*
X12603791Y-4114873D01*
X12623861Y-4149888D01*
X12661440Y-4250638D01*
X12669111Y-4271204D01*
X12756739Y-4388261D01*
X12873796Y-4475889D01*
X13010799Y-4526989D01*
X13038050Y-4529918D01*
X13071345Y-4533499D01*
X13071362Y-4533500D01*
X14662680Y-4533500D01*
X14729719Y-4553185D01*
X14750361Y-4569819D01*
X14955182Y-4774640D01*
X14988666Y-4835961D01*
X14991500Y-4862319D01*
X14991500Y-5088773D01*
X14971815Y-5155812D01*
X14919011Y-5201567D01*
X14849853Y-5211511D01*
X14828497Y-5206479D01*
X14664428Y-5152113D01*
X14560546Y-5141500D01*
X13934462Y-5141500D01*
X13934446Y-5141501D01*
X13830572Y-5152113D01*
X13662264Y-5207884D01*
X13662259Y-5207886D01*
X13511346Y-5300971D01*
X13422681Y-5389637D01*
X13361358Y-5423122D01*
X13291666Y-5418138D01*
X13247319Y-5389637D01*
X13158653Y-5300971D01*
X13158652Y-5300970D01*
X13013617Y-5211511D01*
X13007740Y-5207886D01*
X13007735Y-5207884D01*
X12839427Y-5152113D01*
X12735546Y-5141500D01*
X12109462Y-5141500D01*
X12109446Y-5141501D01*
X12005572Y-5152113D01*
X11837264Y-5207884D01*
X11837259Y-5207886D01*
X11686346Y-5300971D01*
X11622137Y-5365181D01*
X11560814Y-5398666D01*
X11534456Y-5401500D01*
X9628425Y-5401500D01*
X9561386Y-5381815D01*
X9515631Y-5329011D01*
X9512251Y-5320855D01*
X9505889Y-5303796D01*
X9503773Y-5300970D01*
X9484798Y-5275622D01*
X9418261Y-5186739D01*
X9301204Y-5099111D01*
X9273487Y-5088773D01*
X9164203Y-5048011D01*
X9103654Y-5041500D01*
X9103638Y-5041500D01*
X8247320Y-5041500D01*
X8180281Y-5021815D01*
X8159639Y-5005181D01*
X7665798Y-4511340D01*
X7653160Y-4496543D01*
X7645185Y-4485566D01*
X7643387Y-4483947D01*
X7594553Y-4439977D01*
X7592214Y-4437756D01*
X7576990Y-4422532D01*
X7576977Y-4422520D01*
X7560243Y-4408969D01*
X7557776Y-4406862D01*
X7537116Y-4388260D01*
X7507169Y-4361296D01*
X7503829Y-4359368D01*
X7495411Y-4354507D01*
X7479376Y-4343486D01*
X7468844Y-4334957D01*
X7468843Y-4334956D01*
X7468839Y-4334953D01*
X7464384Y-4332683D01*
X7408157Y-4304033D01*
X7405326Y-4302497D01*
X7383484Y-4289886D01*
X7335269Y-4239320D01*
X7322046Y-4170713D01*
X7348014Y-4105848D01*
X7404928Y-4065320D01*
X7445485Y-4058500D01*
X7802447Y-4058500D01*
X7869486Y-4078185D01*
X7893674Y-4098514D01*
X7966760Y-4177906D01*
X8144424Y-4316189D01*
X8144425Y-4316189D01*
X8144427Y-4316191D01*
X8257305Y-4377277D01*
X8342426Y-4423342D01*
X8555365Y-4496444D01*
X8777431Y-4533500D01*
X9002569Y-4533500D01*
X9224635Y-4496444D01*
X9437574Y-4423342D01*
X9635576Y-4316189D01*
X9813240Y-4177906D01*
X9965722Y-4012268D01*
X10056193Y-3873790D01*
X10109338Y-3828437D01*
X10178569Y-3819013D01*
X10241905Y-3848515D01*
G37*
%TD.AperFunction*%
%TA.AperFunction,NonConductor*%
G36*
X22628094Y-4587512D02*
G01*
X22632178Y-4591075D01*
X22697931Y-4651016D01*
X22788080Y-4733198D01*
X22793856Y-4738463D01*
X22793858Y-4738465D01*
X22801488Y-4743189D01*
X22976400Y-4851489D01*
X23176603Y-4929049D01*
X23387649Y-4968500D01*
X23387651Y-4968500D01*
X23602349Y-4968500D01*
X23602351Y-4968500D01*
X23813397Y-4929049D01*
X24013600Y-4851489D01*
X24196143Y-4738464D01*
X24209965Y-4725863D01*
X24272770Y-4695246D01*
X24293504Y-4693500D01*
X24862531Y-4693500D01*
X24929570Y-4713185D01*
X24961796Y-4743188D01*
X25021739Y-4823261D01*
X25138796Y-4910889D01*
X25197687Y-4932854D01*
X25280703Y-4963819D01*
X25336636Y-5005691D01*
X25361052Y-5071155D01*
X25346200Y-5139428D01*
X25296794Y-5188833D01*
X25280703Y-5196181D01*
X25138795Y-5249111D01*
X25032062Y-5329011D01*
X25021739Y-5336739D01*
X24973260Y-5401500D01*
X24961798Y-5416811D01*
X24905864Y-5458682D01*
X24862531Y-5466500D01*
X22620524Y-5466500D01*
X22553485Y-5446815D01*
X22514985Y-5407597D01*
X22511224Y-5401500D01*
X22434030Y-5276348D01*
X22429814Y-5272132D01*
X22396332Y-5210807D01*
X22393500Y-5184455D01*
X22393500Y-4733198D01*
X22411959Y-4668104D01*
X22443104Y-4617611D01*
X22495049Y-4570891D01*
X22564012Y-4559668D01*
X22628094Y-4587512D01*
G37*
%TD.AperFunction*%
%TA.AperFunction,NonConductor*%
G36*
X27364428Y-4498799D02*
G01*
X27413833Y-4548205D01*
X27421181Y-4564297D01*
X27474110Y-4706203D01*
X27496140Y-4735632D01*
X27561739Y-4823261D01*
X27678796Y-4910889D01*
X27737687Y-4932854D01*
X27820703Y-4963819D01*
X27876636Y-5005691D01*
X27901052Y-5071155D01*
X27886200Y-5139428D01*
X27836794Y-5188833D01*
X27820703Y-5196181D01*
X27678795Y-5249111D01*
X27561739Y-5336739D01*
X27474111Y-5453795D01*
X27421181Y-5595703D01*
X27379309Y-5651636D01*
X27313845Y-5676052D01*
X27245572Y-5661200D01*
X27196167Y-5611794D01*
X27188819Y-5595703D01*
X27137233Y-5457400D01*
X27135889Y-5453796D01*
X27048261Y-5336739D01*
X26931204Y-5249111D01*
X26931202Y-5249110D01*
X26931204Y-5249110D01*
X26789297Y-5196181D01*
X26733363Y-5154310D01*
X26708947Y-5088845D01*
X26723799Y-5020572D01*
X26773205Y-4971167D01*
X26789297Y-4963819D01*
X26889090Y-4926596D01*
X26931204Y-4910889D01*
X27048261Y-4823261D01*
X27135889Y-4706204D01*
X27156473Y-4651016D01*
X27188819Y-4564297D01*
X27230690Y-4508363D01*
X27296155Y-4483947D01*
X27364428Y-4498799D01*
G37*
%TD.AperFunction*%
%TA.AperFunction,NonConductor*%
G36*
X24027220Y-7253185D02*
G01*
X24072975Y-7305989D01*
X24082919Y-7375147D01*
X24053894Y-7438703D01*
X24047867Y-7445174D01*
X23916376Y-7576666D01*
X23302859Y-8190181D01*
X23241536Y-8223666D01*
X23215179Y-8226500D01*
X22994463Y-8226500D01*
X22994446Y-8226501D01*
X22890571Y-8237113D01*
X22749654Y-8283808D01*
X22679826Y-8286210D01*
X22619784Y-8250478D01*
X22588592Y-8187957D01*
X22587293Y-8178704D01*
X22584121Y-8147658D01*
X22582887Y-8135574D01*
X22527115Y-7967262D01*
X22434030Y-7816348D01*
X22325363Y-7707680D01*
X22291878Y-7646358D01*
X22296862Y-7576666D01*
X22325363Y-7532319D01*
X22378374Y-7479308D01*
X22434030Y-7423652D01*
X22514986Y-7292402D01*
X22566933Y-7245678D01*
X22620524Y-7233500D01*
X23960181Y-7233500D01*
X24027220Y-7253185D01*
G37*
%TD.AperFunction*%
%TA.AperFunction,NonConductor*%
G36*
X11493944Y-7188185D02*
G01*
X11532441Y-7227400D01*
X11560970Y-7273652D01*
X11686348Y-7399030D01*
X11757598Y-7442977D01*
X11804321Y-7494924D01*
X11816500Y-7548515D01*
X11816500Y-7888887D01*
X11796815Y-7955926D01*
X11744011Y-8001681D01*
X11674853Y-8011625D01*
X11627403Y-7994426D01*
X11571331Y-7959840D01*
X11571324Y-7959837D01*
X11404401Y-7904525D01*
X11404402Y-7904525D01*
X11301375Y-7894000D01*
X10288632Y-7894000D01*
X10288616Y-7894001D01*
X10185594Y-7904526D01*
X10018673Y-7959838D01*
X10018668Y-7959840D01*
X9869000Y-8052157D01*
X9744656Y-8176501D01*
X9744653Y-8176505D01*
X9649784Y-8330311D01*
X9597836Y-8377036D01*
X9528873Y-8388257D01*
X9464792Y-8360414D01*
X9431864Y-8317619D01*
X9392523Y-8233251D01*
X9261198Y-8045700D01*
X9099300Y-7883802D01*
X9091628Y-7878430D01*
X9048006Y-7823853D01*
X9040814Y-7754355D01*
X9072338Y-7692001D01*
X9132568Y-7656588D01*
X9149489Y-7653570D01*
X9164201Y-7651989D01*
X9301204Y-7600889D01*
X9418261Y-7513261D01*
X9505889Y-7396204D01*
X9551599Y-7273653D01*
X9559701Y-7251932D01*
X9562192Y-7252861D01*
X9590438Y-7203264D01*
X9652351Y-7170881D01*
X9676536Y-7168500D01*
X11426905Y-7168500D01*
X11493944Y-7188185D01*
G37*
%TD.AperFunction*%
%TA.AperFunction,NonConductor*%
G36*
X18768366Y-10221820D02*
G01*
X18799559Y-10284340D01*
X18801500Y-10306196D01*
X18801500Y-10365178D01*
X18781815Y-10432217D01*
X18765181Y-10452859D01*
X18745283Y-10472758D01*
X18742929Y-10474992D01*
X18692315Y-10520566D01*
X18652275Y-10575675D01*
X18650310Y-10578236D01*
X18607452Y-10631162D01*
X18601289Y-10643256D01*
X18591134Y-10659828D01*
X18583152Y-10670816D01*
X18583150Y-10670819D01*
X18555454Y-10733024D01*
X18554057Y-10735954D01*
X18523137Y-10796637D01*
X18519624Y-10809748D01*
X18513133Y-10828079D01*
X18507613Y-10840477D01*
X18507612Y-10840480D01*
X18493458Y-10907074D01*
X18492700Y-10910230D01*
X18475070Y-10976025D01*
X18474359Y-10989591D01*
X18471820Y-11008869D01*
X18469000Y-11022137D01*
X18469000Y-11081195D01*
X18449315Y-11148234D01*
X18396511Y-11193989D01*
X18327353Y-11203933D01*
X18306686Y-11199127D01*
X18297209Y-11196048D01*
X18297203Y-11196046D01*
X18273996Y-11193607D01*
X18158806Y-11181500D01*
X18158801Y-11181500D01*
X17859296Y-11181500D01*
X17839896Y-11179973D01*
X17826493Y-11177850D01*
X17758469Y-11181415D01*
X17755226Y-11181500D01*
X17733694Y-11181500D01*
X17724574Y-11182458D01*
X17712276Y-11183750D01*
X17709045Y-11184004D01*
X17674315Y-11185825D01*
X17606337Y-11169677D01*
X17557880Y-11119341D01*
X17544330Y-11050798D01*
X17569987Y-10985810D01*
X17580134Y-10974322D01*
X18269639Y-10284818D01*
X18330962Y-10251333D01*
X18357320Y-10248499D01*
X18385537Y-10248499D01*
X18385544Y-10248499D01*
X18489426Y-10237887D01*
X18638499Y-10188489D01*
X18708324Y-10186088D01*
X18768366Y-10221820D01*
G37*
%TD.AperFunction*%
%TA.AperFunction,NonConductor*%
G36*
X24847274Y-9648837D02*
G01*
X24898474Y-9696380D01*
X24908097Y-9716459D01*
X24916144Y-9738034D01*
X24934111Y-9786204D01*
X25021739Y-9903261D01*
X25138796Y-9990889D01*
X25237015Y-10027523D01*
X25275793Y-10041987D01*
X25275799Y-10041989D01*
X25319015Y-10046635D01*
X25383565Y-10073372D01*
X25423413Y-10130764D01*
X25425907Y-10200589D01*
X25390255Y-10260679D01*
X25349094Y-10286105D01*
X25233795Y-10329111D01*
X25116739Y-10416739D01*
X25029111Y-10533795D01*
X24978011Y-10670795D01*
X24978011Y-10670797D01*
X24971500Y-10731345D01*
X24971500Y-12128654D01*
X24978011Y-12189202D01*
X24978011Y-12189204D01*
X25009753Y-12274304D01*
X25029111Y-12326204D01*
X25029113Y-12326206D01*
X25030623Y-12328973D01*
X25031292Y-12332052D01*
X25032210Y-12334512D01*
X25031856Y-12334643D01*
X25045469Y-12397247D01*
X25021048Y-12462710D01*
X25009467Y-12476073D01*
X24806278Y-12679262D01*
X24744955Y-12712747D01*
X24675263Y-12707763D01*
X24619330Y-12665891D01*
X24599333Y-12625521D01*
X24579897Y-12557209D01*
X24563039Y-12523354D01*
X24484194Y-12365012D01*
X24354813Y-12193683D01*
X24332255Y-12173118D01*
X24295975Y-12113406D01*
X24297736Y-12043559D01*
X24336981Y-11985752D01*
X24350689Y-11975950D01*
X24418652Y-11934030D01*
X24544030Y-11808652D01*
X24637115Y-11657738D01*
X24692887Y-11489426D01*
X24703500Y-11385545D01*
X24703499Y-10759456D01*
X24692887Y-10655574D01*
X24637115Y-10487262D01*
X24544030Y-10336348D01*
X24455363Y-10247680D01*
X24421878Y-10186358D01*
X24426862Y-10116666D01*
X24455363Y-10072319D01*
X24494085Y-10033597D01*
X24544030Y-9983652D01*
X24637115Y-9832738D01*
X24674210Y-9720789D01*
X24713982Y-9663345D01*
X24778498Y-9636522D01*
X24847274Y-9648837D01*
G37*
%TD.AperFunction*%
%TA.AperFunction,NonConductor*%
G36*
X9547355Y-12112579D02*
G01*
X9582769Y-12172809D01*
X9586500Y-12202998D01*
X9586500Y-12735537D01*
X9586501Y-12735553D01*
X9597113Y-12839427D01*
X9652884Y-13007735D01*
X9652886Y-13007740D01*
X9678215Y-13048804D01*
X9729024Y-13131179D01*
X9745971Y-13158653D01*
X9840647Y-13253329D01*
X9874132Y-13314652D01*
X9869148Y-13384344D01*
X9840648Y-13428691D01*
X9752680Y-13516659D01*
X9713066Y-13580884D01*
X9661118Y-13627609D01*
X9592156Y-13638830D01*
X9528074Y-13610987D01*
X9489218Y-13552918D01*
X9487753Y-13547880D01*
X9481269Y-13523682D01*
X9481265Y-13523673D01*
X9385134Y-13317517D01*
X9254657Y-13131179D01*
X9093820Y-12970342D01*
X8907481Y-12839865D01*
X8907479Y-12839864D01*
X8858599Y-12817071D01*
X8806159Y-12770899D01*
X8787007Y-12703706D01*
X8807223Y-12636824D01*
X8858599Y-12592307D01*
X8860960Y-12591206D01*
X8911749Y-12567523D01*
X9099300Y-12436198D01*
X9261198Y-12274300D01*
X9360927Y-12131872D01*
X9415502Y-12088249D01*
X9485001Y-12081057D01*
X9547355Y-12112579D01*
G37*
%TD.AperFunction*%
M02*
