%TF.GenerationSoftware,KiCad,Pcbnew,7.0.5*%
%TF.CreationDate,2023-11-22T17:00:01-05:00*%
%TF.ProjectId,isp,6973702e-6b69-4636-9164-5f7063625858,rev?*%
%TF.SameCoordinates,Original*%
%TF.FileFunction,Copper,L2,Bot*%
%TF.FilePolarity,Positive*%
%FSLAX46Y46*%
G04 Gerber Fmt 4.6, Leading zero omitted, Abs format (unit mm)*
G04 Created by KiCad (PCBNEW 7.0.5) date 2023-11-22 17:00:01*
%MOMM*%
%LPD*%
G01*
G04 APERTURE LIST*
G04 Aperture macros list*
%AMRoundRect*
0 Rectangle with rounded corners*
0 $1 Rounding radius*
0 $2 $3 $4 $5 $6 $7 $8 $9 X,Y pos of 4 corners*
0 Add a 4 corners polygon primitive as box body*
4,1,4,$2,$3,$4,$5,$6,$7,$8,$9,$2,$3,0*
0 Add four circle primitives for the rounded corners*
1,1,$1+$1,$2,$3*
1,1,$1+$1,$4,$5*
1,1,$1+$1,$6,$7*
1,1,$1+$1,$8,$9*
0 Add four rect primitives between the rounded corners*
20,1,$1+$1,$2,$3,$4,$5,0*
20,1,$1+$1,$4,$5,$6,$7,0*
20,1,$1+$1,$6,$7,$8,$9,0*
20,1,$1+$1,$8,$9,$2,$3,0*%
G04 Aperture macros list end*
%TA.AperFunction,ComponentPad*%
%ADD10C,1.100000*%
%TD*%
%TA.AperFunction,SMDPad,CuDef*%
%ADD11RoundRect,0.250000X-0.450000X0.262500X-0.450000X-0.262500X0.450000X-0.262500X0.450000X0.262500X0*%
%TD*%
%TA.AperFunction,SMDPad,CuDef*%
%ADD12RoundRect,0.250000X-0.262500X-0.450000X0.262500X-0.450000X0.262500X0.450000X-0.262500X0.450000X0*%
%TD*%
%TA.AperFunction,SMDPad,CuDef*%
%ADD13RoundRect,0.150000X0.587500X0.150000X-0.587500X0.150000X-0.587500X-0.150000X0.587500X-0.150000X0*%
%TD*%
%TA.AperFunction,SMDPad,CuDef*%
%ADD14RoundRect,0.250000X0.475000X-0.250000X0.475000X0.250000X-0.475000X0.250000X-0.475000X-0.250000X0*%
%TD*%
%TA.AperFunction,SMDPad,CuDef*%
%ADD15RoundRect,0.250000X-0.475000X0.250000X-0.475000X-0.250000X0.475000X-0.250000X0.475000X0.250000X0*%
%TD*%
%TA.AperFunction,ViaPad*%
%ADD16C,0.800000*%
%TD*%
%TA.AperFunction,Conductor*%
%ADD17C,0.750000*%
%TD*%
%TA.AperFunction,Conductor*%
%ADD18C,1.000000*%
%TD*%
G04 APERTURE END LIST*
D10*
%TO.P,J5,1,Pin_1*%
%TO.N,UART*%
X4445000Y-5710000D03*
%TO.P,J5,2,Pin_2*%
%TO.N,UCLK*%
X4445000Y-8250000D03*
%TD*%
%TO.P,U1,8,VCC*%
%TO.N,+5V*%
X18415000Y-3175000D03*
%TO.P,U1,7,PB2*%
%TO.N,Net-(Q1-D)*%
X18415000Y-5715000D03*
%TO.P,U1,6,PB1*%
%TO.N,Net-(Q2-D)*%
X18415000Y-8255000D03*
%TO.P,U1,5,AREF/PB0*%
%TO.N,Net-(Q3-D)*%
X18415000Y-10795000D03*
%TO.P,U1,4,GND*%
%TO.N,GND*%
X10795000Y-10795000D03*
%TO.P,U1,3,XTAL2/PB4*%
%TO.N,UCLK*%
X10795000Y-8255000D03*
%TO.P,U1,2,XTAL1/PB3*%
%TO.N,UART*%
X10795000Y-5715000D03*
%TO.P,U1,1,~{RESET}/PB5*%
%TO.N,Net-(U1-~{RESET}{slash}PB5)*%
X10795000Y-3175000D03*
%TD*%
D11*
%TO.P,R8,1*%
%TO.N,Net-(J3-VCC)*%
X24765000Y-2262500D03*
%TO.P,R8,2*%
%TO.N,Net-(J3-MISO)*%
X24765000Y-4087500D03*
%TD*%
%TO.P,R7,1*%
%TO.N,Net-(J3-VCC)*%
X24765000Y-9882500D03*
%TO.P,R7,2*%
%TO.N,Net-(J3-MOSI)*%
X24765000Y-11707500D03*
%TD*%
%TO.P,R6,1*%
%TO.N,Net-(J3-VCC)*%
X24765000Y-6072500D03*
%TO.P,R6,2*%
%TO.N,Net-(J3-SCK)*%
X24765000Y-7897500D03*
%TD*%
D12*
%TO.P,R5,2*%
%TO.N,Net-(Q3-D)*%
X17412500Y-10785000D03*
%TO.P,R5,1*%
%TO.N,+5V*%
X15587500Y-10785000D03*
%TD*%
%TO.P,R4,2*%
%TO.N,Net-(Q2-D)*%
X17412500Y-8245000D03*
%TO.P,R4,1*%
%TO.N,+5V*%
X15587500Y-8245000D03*
%TD*%
%TO.P,R3,2*%
%TO.N,+5V*%
X13890000Y-3175000D03*
%TO.P,R3,1*%
%TO.N,Net-(U1-~{RESET}{slash}PB5)*%
X12065000Y-3175000D03*
%TD*%
%TO.P,R2,2*%
%TO.N,Net-(Q1-D)*%
X17412500Y-5705000D03*
%TO.P,R2,1*%
%TO.N,+5V*%
X15587500Y-5705000D03*
%TD*%
D11*
%TO.P,R1,1*%
%TO.N,Net-(J1-Pin_2)*%
X8890000Y-4802500D03*
%TO.P,R1,2*%
%TO.N,UART*%
X8890000Y-6627500D03*
%TD*%
D13*
%TO.P,Q3,1,G*%
%TO.N,Net-(J3-VCC)*%
X23162500Y-2225000D03*
%TO.P,Q3,2,S*%
%TO.N,Net-(J3-MISO)*%
X23162500Y-4125000D03*
%TO.P,Q3,3,D*%
%TO.N,Net-(Q3-D)*%
X21287500Y-3175000D03*
%TD*%
%TO.P,Q2,1,G*%
%TO.N,Net-(J3-VCC)*%
X23162500Y-9845000D03*
%TO.P,Q2,2,S*%
%TO.N,Net-(J3-MOSI)*%
X23162500Y-11745000D03*
%TO.P,Q2,3,D*%
%TO.N,Net-(Q2-D)*%
X21287500Y-10795000D03*
%TD*%
%TO.P,Q1,3,D*%
%TO.N,Net-(Q1-D)*%
X21287500Y-6985000D03*
%TO.P,Q1,2,S*%
%TO.N,Net-(J3-SCK)*%
X23162500Y-7935000D03*
%TO.P,Q1,1,G*%
%TO.N,Net-(J3-VCC)*%
X23162500Y-6035000D03*
%TD*%
D10*
%TO.P,J4,1,Pin_1*%
%TO.N,+5V*%
X1880000Y-9510000D03*
%TO.P,J4,2,Pin_2*%
%TO.N,Net-(J3-VCC)*%
X1880000Y-6970000D03*
%TO.P,J4,3,Pin_3*%
%TO.N,+3V3*%
X1880000Y-4430000D03*
%TD*%
%TO.P,J3,1,MISO*%
%TO.N,Net-(J3-MISO)*%
X28575000Y-4445000D03*
%TO.P,J3,2,VCC*%
%TO.N,Net-(J3-VCC)*%
X31115000Y-4445000D03*
%TO.P,J3,3,SCK*%
%TO.N,Net-(J3-SCK)*%
X28575000Y-6985000D03*
%TO.P,J3,4,MOSI*%
%TO.N,Net-(J3-MOSI)*%
X31115000Y-6985000D03*
%TO.P,J3,5,~{RST}*%
%TO.N,Net-(J2-Pin_1)*%
X28575000Y-9525000D03*
%TO.P,J3,6,GND*%
%TO.N,GND*%
X31115000Y-9525000D03*
%TD*%
%TO.P,J2,1,Pin_1*%
%TO.N,Net-(J2-Pin_1)*%
X28570000Y-12065000D03*
%TO.P,J2,2,Pin_2*%
%TO.N,GND*%
X31110000Y-12065000D03*
%TD*%
%TO.P,J1,1,Pin_1*%
%TO.N,+3V3*%
X6985000Y-1905000D03*
%TO.P,J1,2,Pin_2*%
%TO.N,Net-(J1-Pin_2)*%
X6985000Y-4445000D03*
%TO.P,J1,3,Pin_3*%
%TO.N,UART*%
X6985000Y-6985000D03*
%TO.P,J1,4,Pin_4*%
%TO.N,GND*%
X6985000Y-9525000D03*
%TO.P,J1,5,Pin_5*%
%TO.N,+5V*%
X6985000Y-12065000D03*
%TD*%
D14*
%TO.P,C2,1*%
%TO.N,+5V*%
X8890000Y-11745000D03*
%TO.P,C2,2*%
%TO.N,GND*%
X8890000Y-9845000D03*
%TD*%
D15*
%TO.P,C1,1*%
%TO.N,Net-(U1-~{RESET}{slash}PB5)*%
X13335000Y-7305000D03*
%TO.P,C1,2*%
%TO.N,GND*%
X13335000Y-9205000D03*
%TD*%
D16*
%TO.N,Net-(J3-VCC)*%
X26670000Y-5715000D03*
X26670000Y-8255000D03*
%TO.N,Net-(Q3-D)*%
X19685000Y-9525000D03*
X19685000Y-4445000D03*
%TD*%
D17*
%TO.N,GND*%
X8570000Y-9525000D02*
X8890000Y-9845000D01*
X6985000Y-9525000D02*
X8570000Y-9525000D01*
%TO.N,Net-(J2-Pin_1)*%
X28575000Y-12060000D02*
X28570000Y-12065000D01*
X28575000Y-9525000D02*
X28575000Y-12060000D01*
%TO.N,Net-(J3-MOSI)*%
X29845000Y-8255000D02*
X31115000Y-6985000D01*
X26706751Y-9802258D02*
X28254009Y-8255000D01*
X28254009Y-8255000D02*
X29845000Y-8255000D01*
X24819226Y-11707500D02*
X26706751Y-9819975D01*
X26706751Y-9819975D02*
X26706751Y-9802258D01*
X24765000Y-11707500D02*
X24819226Y-11707500D01*
%TO.N,Net-(J3-VCC)*%
X26670000Y-5715000D02*
X25122500Y-5715000D01*
X29845000Y-5715000D02*
X26670000Y-5715000D01*
X25042500Y-9882500D02*
X26670000Y-8255000D01*
X31115000Y-3810000D02*
X31115000Y-4445000D01*
X29567500Y-2262500D02*
X31115000Y-3810000D01*
X24765000Y-2262500D02*
X29567500Y-2262500D01*
%TO.N,Net-(J3-MISO)*%
X28217500Y-4087500D02*
X28575000Y-4445000D01*
X24765000Y-4087500D02*
X28217500Y-4087500D01*
%TO.N,Net-(J3-SCK)*%
X28575000Y-6985000D02*
X26035000Y-6985000D01*
%TO.N,UART*%
X6985000Y-6627500D02*
X6985000Y-6985000D01*
X6627500Y-6627500D02*
X5710000Y-5710000D01*
X8890000Y-6627500D02*
X6627500Y-6627500D01*
X4445000Y-5710000D02*
X5710000Y-5710000D01*
%TO.N,Net-(J3-VCC)*%
X18415000Y-1905000D02*
X22842500Y-1905000D01*
X22842500Y-1905000D02*
X23162500Y-2225000D01*
X24765000Y-9882500D02*
X25042500Y-9882500D01*
%TO.N,Net-(J3-SCK)*%
X25122500Y-7897500D02*
X24765000Y-7897500D01*
X26035000Y-6985000D02*
X25122500Y-7897500D01*
%TO.N,Net-(J3-MOSI)*%
X24727500Y-11745000D02*
X24765000Y-11707500D01*
X23162500Y-11745000D02*
X24727500Y-11745000D01*
%TO.N,Net-(J3-VCC)*%
X24727500Y-9845000D02*
X24765000Y-9882500D01*
X23162500Y-9845000D02*
X24727500Y-9845000D01*
%TO.N,Net-(Q2-D)*%
X20955000Y-10462500D02*
X21287500Y-10795000D01*
X20955000Y-8890000D02*
X20955000Y-10462500D01*
X20320000Y-8255000D02*
X20955000Y-8890000D01*
X18415000Y-8255000D02*
X20320000Y-8255000D01*
%TO.N,Net-(Q1-D)*%
X19050000Y-5715000D02*
X20320000Y-6985000D01*
X20320000Y-6985000D02*
X21287500Y-6985000D01*
X18415000Y-5715000D02*
X19050000Y-5715000D01*
%TO.N,Net-(Q3-D)*%
X19685000Y-9525000D02*
X18415000Y-10795000D01*
X21287500Y-3175000D02*
X20955000Y-3175000D01*
X20955000Y-3175000D02*
X19685000Y-4445000D01*
%TO.N,+5V*%
X4435000Y-12065000D02*
X6985000Y-12065000D01*
X1880000Y-9510000D02*
X4435000Y-12065000D01*
%TO.N,Net-(J3-VCC)*%
X10165000Y-1900000D02*
X18410000Y-1900000D01*
X10160000Y-1905000D02*
X10165000Y-1900000D01*
X8890000Y-1905000D02*
X10160000Y-1905000D01*
X18410000Y-1900000D02*
X18415000Y-1905000D01*
X7620000Y-3175000D02*
X8890000Y-1905000D01*
X5080000Y-3175000D02*
X7620000Y-3175000D01*
X1880000Y-6970000D02*
X1880000Y-6375000D01*
X1880000Y-6375000D02*
X5080000Y-3175000D01*
%TO.N,+3V3*%
X1880000Y-4430000D02*
X4405000Y-1905000D01*
X4405000Y-1905000D02*
X6985000Y-1905000D01*
%TO.N,+5V*%
X8890000Y-11745000D02*
X8890000Y-12065000D01*
X8890000Y-12065000D02*
X14307500Y-12065000D01*
X6985000Y-12065000D02*
X8890000Y-12065000D01*
X14307500Y-12065000D02*
X15587500Y-10785000D01*
%TO.N,Net-(J1-Pin_2)*%
X8532500Y-4445000D02*
X8890000Y-4802500D01*
X6985000Y-4445000D02*
X8532500Y-4445000D01*
%TO.N,UCLK*%
X10790000Y-8250000D02*
X10795000Y-8255000D01*
X4445000Y-8250000D02*
X10790000Y-8250000D01*
%TO.N,UART*%
X9882500Y-6627500D02*
X10795000Y-5715000D01*
X8890000Y-6627500D02*
X9882500Y-6627500D01*
%TO.N,+5V*%
X16570000Y-3175000D02*
X15587500Y-4157500D01*
X18415000Y-3175000D02*
X16570000Y-3175000D01*
X14605000Y-3175000D02*
X13890000Y-3175000D01*
X15587500Y-4157500D02*
X14605000Y-3175000D01*
X15587500Y-5705000D02*
X15587500Y-4157500D01*
%TO.N,Net-(U1-~{RESET}{slash}PB5)*%
X13335000Y-5080000D02*
X12065000Y-3810000D01*
X12065000Y-3810000D02*
X12065000Y-3175000D01*
X13335000Y-7305000D02*
X13335000Y-5080000D01*
%TO.N,+5V*%
X15587500Y-5705000D02*
X15587500Y-10785000D01*
%TO.N,Net-(U1-~{RESET}{slash}PB5)*%
X10795000Y-3175000D02*
X12065000Y-3175000D01*
%TO.N,Net-(Q3-D)*%
X18405000Y-10785000D02*
X18415000Y-10795000D01*
X17412500Y-10785000D02*
X18405000Y-10785000D01*
%TO.N,Net-(Q2-D)*%
X18405000Y-8245000D02*
X18415000Y-8255000D01*
X17412500Y-8245000D02*
X18405000Y-8245000D01*
%TO.N,Net-(Q1-D)*%
X17412500Y-5705000D02*
X18405000Y-5705000D01*
X18405000Y-5705000D02*
X18415000Y-5715000D01*
%TO.N,Net-(J3-SCK)*%
X24727500Y-7935000D02*
X24765000Y-7897500D01*
X23162500Y-7935000D02*
X24727500Y-7935000D01*
%TO.N,Net-(J3-MISO)*%
X24727500Y-4125000D02*
X24765000Y-4087500D01*
X23162500Y-4125000D02*
X24727500Y-4125000D01*
%TO.N,Net-(J3-VCC)*%
X24727500Y-2225000D02*
X24765000Y-2262500D01*
X23162500Y-2225000D02*
X24727500Y-2225000D01*
X24727500Y-6035000D02*
X24765000Y-6072500D01*
X23162500Y-6035000D02*
X24727500Y-6035000D01*
X25122500Y-5715000D02*
X24765000Y-6072500D01*
X31115000Y-4445000D02*
X29845000Y-5715000D01*
D18*
%TO.N,Net-(J2-Pin_1)*%
X28570000Y-9530000D02*
X28575000Y-9525000D01*
%TD*%
%TA.AperFunction,Conductor*%
%TO.N,GND*%
G36*
X10204967Y-4059841D02*
G01*
X10387969Y-4157659D01*
X10587498Y-4218185D01*
X10795000Y-4238622D01*
X11002502Y-4218185D01*
X11144723Y-4175042D01*
X11214586Y-4174420D01*
X11273699Y-4211668D01*
X11291199Y-4237407D01*
X11291246Y-4237499D01*
X11319953Y-4293839D01*
X11319956Y-4293843D01*
X11319957Y-4293844D01*
X11328486Y-4304376D01*
X11339507Y-4320411D01*
X11346296Y-4332169D01*
X11376412Y-4365616D01*
X11391862Y-4382776D01*
X11393969Y-4385243D01*
X11407520Y-4401977D01*
X11407532Y-4401990D01*
X11422756Y-4417214D01*
X11424991Y-4419569D01*
X11425212Y-4419815D01*
X11470566Y-4470185D01*
X11481551Y-4478166D01*
X11496340Y-4490798D01*
X11968448Y-4962906D01*
X12415181Y-5409638D01*
X12448666Y-5470961D01*
X12451500Y-5497319D01*
X12451500Y-6346576D01*
X12431815Y-6413615D01*
X12392600Y-6452113D01*
X12386349Y-6455968D01*
X12260969Y-6581349D01*
X12167886Y-6732259D01*
X12167884Y-6732264D01*
X12112113Y-6900572D01*
X12101500Y-7004447D01*
X12101500Y-7605537D01*
X12101501Y-7605553D01*
X12112113Y-7709427D01*
X12167884Y-7877735D01*
X12167886Y-7877740D01*
X12203142Y-7934898D01*
X12260970Y-8028652D01*
X12386348Y-8154030D01*
X12387031Y-8154451D01*
X12387401Y-8154863D01*
X12392015Y-8158511D01*
X12391391Y-8159298D01*
X12433759Y-8206397D01*
X12444984Y-8275359D01*
X12417144Y-8339442D01*
X12396582Y-8357264D01*
X12397323Y-8358202D01*
X12391655Y-8362683D01*
X12267684Y-8486654D01*
X12175643Y-8635875D01*
X12175641Y-8635880D01*
X12120494Y-8802302D01*
X12120493Y-8802309D01*
X12110000Y-8905013D01*
X12110000Y-8955000D01*
X13461000Y-8955000D01*
X13528039Y-8974685D01*
X13573794Y-9027489D01*
X13585000Y-9079000D01*
X13585000Y-10204999D01*
X13859972Y-10204999D01*
X13859986Y-10204998D01*
X13962697Y-10194505D01*
X14129119Y-10139358D01*
X14129124Y-10139356D01*
X14278345Y-10047315D01*
X14402318Y-9923342D01*
X14407268Y-9915317D01*
X14459215Y-9868591D01*
X14528177Y-9857367D01*
X14592260Y-9885209D01*
X14631117Y-9943277D01*
X14632412Y-10013135D01*
X14630514Y-10019414D01*
X14577113Y-10180570D01*
X14577113Y-10180571D01*
X14566500Y-10284447D01*
X14566500Y-10505179D01*
X14546815Y-10572218D01*
X14530181Y-10592860D01*
X13977861Y-11145181D01*
X13916538Y-11178666D01*
X13890180Y-11181500D01*
X11942199Y-11181500D01*
X11875160Y-11161815D01*
X11829405Y-11109011D01*
X11819461Y-11039853D01*
X11823538Y-11021505D01*
X11829808Y-11000834D01*
X11850080Y-10795000D01*
X11829808Y-10589165D01*
X11769766Y-10391233D01*
X11694023Y-10249528D01*
X11192953Y-10750597D01*
X11180165Y-10669852D01*
X11122641Y-10556955D01*
X11033045Y-10467359D01*
X10920148Y-10409835D01*
X10839399Y-10397045D01*
X11340469Y-9895976D01*
X11340469Y-9895975D01*
X11198766Y-9820233D01*
X11000834Y-9760191D01*
X10795000Y-9739919D01*
X10589165Y-9760191D01*
X10391233Y-9820233D01*
X10208834Y-9917728D01*
X10208828Y-9917732D01*
X10155000Y-9961906D01*
X10155000Y-9971000D01*
X10135315Y-10038039D01*
X10082511Y-10083794D01*
X10031000Y-10095000D01*
X8764000Y-10095000D01*
X8696961Y-10075315D01*
X8651206Y-10022511D01*
X8640000Y-9971000D01*
X8640000Y-9719000D01*
X8659685Y-9651961D01*
X8712489Y-9606206D01*
X8764000Y-9595000D01*
X10114999Y-9595000D01*
X10114999Y-9545028D01*
X10114998Y-9545013D01*
X10105803Y-9455000D01*
X12110001Y-9455000D01*
X12110001Y-9504986D01*
X12120494Y-9607697D01*
X12175641Y-9774119D01*
X12175643Y-9774124D01*
X12267684Y-9923345D01*
X12391654Y-10047315D01*
X12540875Y-10139356D01*
X12540880Y-10139358D01*
X12707302Y-10194505D01*
X12707309Y-10194506D01*
X12810019Y-10204999D01*
X13084999Y-10204999D01*
X13085000Y-10204998D01*
X13085000Y-9455000D01*
X12110001Y-9455000D01*
X10105803Y-9455000D01*
X10104506Y-9442304D01*
X10058744Y-9304206D01*
X10056342Y-9234377D01*
X10092074Y-9174335D01*
X10154594Y-9143142D01*
X10224053Y-9150702D01*
X10234898Y-9155840D01*
X10387969Y-9237659D01*
X10587498Y-9298185D01*
X10795000Y-9318622D01*
X11002502Y-9298185D01*
X11202031Y-9237659D01*
X11385917Y-9139369D01*
X11547094Y-9007094D01*
X11679369Y-8845917D01*
X11777659Y-8662031D01*
X11838185Y-8462502D01*
X11858622Y-8255000D01*
X11838185Y-8047498D01*
X11777659Y-7847969D01*
X11679369Y-7664083D01*
X11675266Y-7659083D01*
X11547094Y-7502905D01*
X11385920Y-7370633D01*
X11385918Y-7370632D01*
X11385917Y-7370631D01*
X11202031Y-7272341D01*
X11127429Y-7249711D01*
X11002501Y-7211814D01*
X10849337Y-7196729D01*
X10784550Y-7170568D01*
X10744192Y-7113533D01*
X10741075Y-7043733D01*
X10773809Y-6985647D01*
X10978775Y-6780681D01*
X11030456Y-6749705D01*
X11202031Y-6697659D01*
X11385917Y-6599369D01*
X11547094Y-6467094D01*
X11679369Y-6305917D01*
X11777659Y-6122031D01*
X11838185Y-5922502D01*
X11858622Y-5715000D01*
X11838185Y-5507498D01*
X11777659Y-5307969D01*
X11679369Y-5124083D01*
X11679191Y-5123866D01*
X11547094Y-4962905D01*
X11385920Y-4830633D01*
X11385918Y-4830632D01*
X11385917Y-4830631D01*
X11202031Y-4732341D01*
X11102266Y-4702078D01*
X11002500Y-4671814D01*
X10795000Y-4651378D01*
X10587499Y-4671814D01*
X10387966Y-4732342D01*
X10333155Y-4761640D01*
X10295441Y-4781799D01*
X10280953Y-4789543D01*
X10212550Y-4803785D01*
X10147306Y-4778785D01*
X10105935Y-4722481D01*
X10098499Y-4680185D01*
X10098499Y-4489462D01*
X10098498Y-4489446D01*
X10094433Y-4449653D01*
X10087887Y-4385574D01*
X10032115Y-4217262D01*
X10032113Y-4217260D01*
X10029843Y-4210407D01*
X10032312Y-4209588D01*
X10023653Y-4152512D01*
X10052182Y-4088733D01*
X10110665Y-4050502D01*
X10180532Y-4049959D01*
X10204967Y-4059841D01*
G37*
%TD.AperFunction*%
%TA.AperFunction,Conductor*%
G36*
X32962539Y-20185D02*
G01*
X33008294Y-72989D01*
X33019500Y-124500D01*
X33019500Y-13845500D01*
X32999815Y-13912539D01*
X32947011Y-13958294D01*
X32895500Y-13969500D01*
X124500Y-13969500D01*
X57461Y-13949815D01*
X11706Y-13897011D01*
X500Y-13845500D01*
X500Y-9510000D01*
X816378Y-9510000D01*
X836814Y-9717500D01*
X851411Y-9765620D01*
X891254Y-9896966D01*
X897342Y-9917033D01*
X897716Y-9917732D01*
X992468Y-10095000D01*
X995633Y-10100920D01*
X1127905Y-10262094D01*
X1288581Y-10393957D01*
X1289083Y-10394369D01*
X1472969Y-10492659D01*
X1644540Y-10544704D01*
X1696226Y-10575684D01*
X3754197Y-12633654D01*
X3766833Y-12648448D01*
X3774815Y-12659434D01*
X3825439Y-12705016D01*
X3827794Y-12707251D01*
X3843015Y-12722472D01*
X3859768Y-12736038D01*
X3862206Y-12738121D01*
X3912831Y-12783704D01*
X3924575Y-12790484D01*
X3940614Y-12801507D01*
X3951161Y-12810048D01*
X4011853Y-12840971D01*
X4014688Y-12842511D01*
X4073669Y-12876564D01*
X4073674Y-12876566D01*
X4086565Y-12880754D01*
X4104549Y-12888203D01*
X4116631Y-12894359D01*
X4116637Y-12894362D01*
X4116638Y-12894362D01*
X4116640Y-12894363D01*
X4128164Y-12897450D01*
X4182441Y-12911993D01*
X4185520Y-12912906D01*
X4250298Y-12933954D01*
X4263795Y-12935372D01*
X4282921Y-12938918D01*
X4292157Y-12941392D01*
X4296029Y-12942430D01*
X4364058Y-12945994D01*
X4367261Y-12946246D01*
X4388694Y-12948500D01*
X4410226Y-12948500D01*
X4413469Y-12948584D01*
X4481493Y-12952150D01*
X4494896Y-12950027D01*
X4514296Y-12948500D01*
X6361397Y-12948500D01*
X6419849Y-12963141D01*
X6577969Y-13047659D01*
X6777498Y-13108185D01*
X6985000Y-13128622D01*
X7192502Y-13108185D01*
X7392031Y-13047659D01*
X7550150Y-12963141D01*
X7608603Y-12948500D01*
X8797140Y-12948500D01*
X8843694Y-12948500D01*
X14228204Y-12948500D01*
X14247603Y-12950026D01*
X14261007Y-12952150D01*
X14329030Y-12948584D01*
X14332274Y-12948500D01*
X14353806Y-12948500D01*
X14375234Y-12946247D01*
X14378443Y-12945994D01*
X14446471Y-12942430D01*
X14459573Y-12938918D01*
X14478711Y-12935372D01*
X14484536Y-12934759D01*
X14492202Y-12933954D01*
X14541604Y-12917901D01*
X14556979Y-12912906D01*
X14560063Y-12911991D01*
X14625863Y-12894362D01*
X14637951Y-12888202D01*
X14655923Y-12880757D01*
X14668831Y-12876564D01*
X14727847Y-12842489D01*
X14730617Y-12840985D01*
X14791339Y-12810047D01*
X14801891Y-12801501D01*
X14817912Y-12790490D01*
X14829669Y-12783704D01*
X14829672Y-12783700D01*
X14829674Y-12783700D01*
X14841204Y-12773317D01*
X14880312Y-12738103D01*
X14882727Y-12736042D01*
X14899486Y-12722472D01*
X14914740Y-12707216D01*
X14917042Y-12705031D01*
X14967685Y-12659434D01*
X14975665Y-12648449D01*
X14988294Y-12633662D01*
X15592139Y-12029818D01*
X15653462Y-11996333D01*
X15679820Y-11993499D01*
X15900537Y-11993499D01*
X15900544Y-11993499D01*
X16004426Y-11982887D01*
X16172738Y-11927115D01*
X16323652Y-11834030D01*
X16412318Y-11745362D01*
X16473642Y-11711878D01*
X16543334Y-11716862D01*
X16587681Y-11745363D01*
X16676348Y-11834030D01*
X16827262Y-11927115D01*
X16995574Y-11982887D01*
X17099455Y-11993500D01*
X17725544Y-11993499D01*
X17829426Y-11982887D01*
X17997738Y-11927115D01*
X18116423Y-11853908D01*
X18183815Y-11835468D01*
X18205715Y-11837830D01*
X18207490Y-11838182D01*
X18207498Y-11838185D01*
X18415000Y-11858622D01*
X18622502Y-11838185D01*
X18822031Y-11777659D01*
X19005917Y-11679369D01*
X19167094Y-11547094D01*
X19299369Y-11385917D01*
X19397659Y-11202031D01*
X19449705Y-11030456D01*
X19480681Y-10978775D01*
X19829820Y-10629637D01*
X19891142Y-10596153D01*
X19960834Y-10601137D01*
X20016767Y-10643009D01*
X20041184Y-10708473D01*
X20041500Y-10717319D01*
X20041500Y-11011507D01*
X20044437Y-11048829D01*
X20044438Y-11048835D01*
X20090853Y-11208596D01*
X20090855Y-11208601D01*
X20175544Y-11351803D01*
X20175551Y-11351812D01*
X20293187Y-11469448D01*
X20293191Y-11469451D01*
X20293193Y-11469453D01*
X20436399Y-11554145D01*
X20473763Y-11565000D01*
X20596164Y-11600561D01*
X20596167Y-11600561D01*
X20596169Y-11600562D01*
X20633498Y-11603500D01*
X20898423Y-11603500D01*
X20954717Y-11617014D01*
X20969137Y-11624362D01*
X21148529Y-11672430D01*
X21333993Y-11682150D01*
X21437733Y-11665719D01*
X21517423Y-11653098D01*
X21625175Y-11611736D01*
X21669613Y-11603500D01*
X21792500Y-11603500D01*
X21859539Y-11623185D01*
X21905294Y-11675989D01*
X21916500Y-11727500D01*
X21916500Y-11961507D01*
X21919437Y-11998829D01*
X21919438Y-11998835D01*
X21965853Y-12158596D01*
X21965855Y-12158601D01*
X22050544Y-12301803D01*
X22050551Y-12301812D01*
X22168187Y-12419448D01*
X22168191Y-12419451D01*
X22168193Y-12419453D01*
X22311399Y-12504145D01*
X22353530Y-12516385D01*
X22471164Y-12550561D01*
X22471167Y-12550561D01*
X22471169Y-12550562D01*
X22508498Y-12553500D01*
X22772099Y-12553500D01*
X22810417Y-12559569D01*
X22977798Y-12613954D01*
X23116194Y-12628500D01*
X23902598Y-12628500D01*
X23967694Y-12646961D01*
X23992262Y-12662115D01*
X24160574Y-12717887D01*
X24264455Y-12728500D01*
X25265544Y-12728499D01*
X25369426Y-12717887D01*
X25537738Y-12662115D01*
X25688652Y-12569030D01*
X25814030Y-12443652D01*
X25907115Y-12292738D01*
X25962887Y-12124426D01*
X25973500Y-12020545D01*
X25973499Y-11854045D01*
X25993183Y-11787006D01*
X26009813Y-11766369D01*
X27275413Y-10500769D01*
X27290201Y-10488139D01*
X27301185Y-10480160D01*
X27346764Y-10429537D01*
X27348967Y-10427215D01*
X27364223Y-10411961D01*
X27377787Y-10395208D01*
X27379883Y-10392755D01*
X27425455Y-10342144D01*
X27429765Y-10334677D01*
X27449471Y-10308994D01*
X27479821Y-10278644D01*
X27541142Y-10245161D01*
X27610834Y-10250145D01*
X27666767Y-10292017D01*
X27691184Y-10357481D01*
X27691500Y-10366327D01*
X27691500Y-11432042D01*
X27676858Y-11490496D01*
X27587342Y-11657966D01*
X27526814Y-11857499D01*
X27506378Y-12065000D01*
X27526814Y-12272500D01*
X27535706Y-12301812D01*
X27587341Y-12472031D01*
X27680844Y-12646962D01*
X27685633Y-12655920D01*
X27817905Y-12817094D01*
X27979079Y-12949366D01*
X27979083Y-12949369D01*
X28162969Y-13047659D01*
X28362498Y-13108185D01*
X28570000Y-13128622D01*
X28777502Y-13108185D01*
X28977031Y-13047659D01*
X29160917Y-12949369D01*
X29322094Y-12817094D01*
X29454369Y-12655917D01*
X29552659Y-12472031D01*
X29613185Y-12272502D01*
X29633622Y-12065000D01*
X30054919Y-12065000D01*
X30075191Y-12270834D01*
X30135233Y-12468766D01*
X30210975Y-12610469D01*
X30210976Y-12610469D01*
X30626922Y-12194522D01*
X30650507Y-12274844D01*
X30728239Y-12395798D01*
X30836900Y-12489952D01*
X30967685Y-12549680D01*
X30977466Y-12551086D01*
X30564528Y-12964023D01*
X30706233Y-13039766D01*
X30904165Y-13099808D01*
X31110000Y-13120080D01*
X31315834Y-13099808D01*
X31513764Y-13039766D01*
X31655470Y-12964022D01*
X31242534Y-12551086D01*
X31252315Y-12549680D01*
X31383100Y-12489952D01*
X31491761Y-12395798D01*
X31569493Y-12274844D01*
X31593076Y-12194523D01*
X32009022Y-12610469D01*
X32084766Y-12468764D01*
X32144808Y-12270834D01*
X32165080Y-12065000D01*
X32144808Y-11859165D01*
X32084766Y-11661233D01*
X32009023Y-11519528D01*
X31593076Y-11935475D01*
X31569493Y-11855156D01*
X31491761Y-11734202D01*
X31383100Y-11640048D01*
X31252315Y-11580320D01*
X31242531Y-11578913D01*
X31655469Y-11165976D01*
X31655469Y-11165975D01*
X31513766Y-11090233D01*
X31315834Y-11030191D01*
X31110000Y-11009919D01*
X30904166Y-11030191D01*
X30706234Y-11090234D01*
X30564529Y-11165975D01*
X30564529Y-11165976D01*
X30977465Y-11578913D01*
X30967685Y-11580320D01*
X30836900Y-11640048D01*
X30728239Y-11734202D01*
X30650507Y-11855156D01*
X30626923Y-11935474D01*
X30210976Y-11519529D01*
X30210975Y-11519529D01*
X30135234Y-11661234D01*
X30075191Y-11859166D01*
X30054919Y-12065000D01*
X29633622Y-12065000D01*
X29613185Y-11857498D01*
X29552659Y-11657969D01*
X29473140Y-11509200D01*
X29458499Y-11450753D01*
X29458499Y-10148604D01*
X29473141Y-10090151D01*
X29557659Y-9932031D01*
X29618185Y-9732502D01*
X29638622Y-9525000D01*
X29618185Y-9317498D01*
X29617096Y-9313909D01*
X29612421Y-9298497D01*
X29611796Y-9228630D01*
X29649044Y-9169516D01*
X29712338Y-9139925D01*
X29731081Y-9138500D01*
X29765704Y-9138500D01*
X29785103Y-9140026D01*
X29798507Y-9142150D01*
X29866530Y-9138584D01*
X29869774Y-9138500D01*
X29891306Y-9138500D01*
X29912734Y-9136247D01*
X29915937Y-9135994D01*
X29962870Y-9133535D01*
X30030846Y-9149684D01*
X30079302Y-9200020D01*
X30092851Y-9268564D01*
X30088019Y-9293358D01*
X30080192Y-9319161D01*
X30059919Y-9525000D01*
X30080191Y-9730834D01*
X30140233Y-9928766D01*
X30215975Y-10070469D01*
X30215976Y-10070469D01*
X30631922Y-9654523D01*
X30655507Y-9734844D01*
X30733239Y-9855798D01*
X30841900Y-9949952D01*
X30972685Y-10009680D01*
X30982466Y-10011086D01*
X30569528Y-10424023D01*
X30711233Y-10499766D01*
X30909165Y-10559808D01*
X31114999Y-10580080D01*
X31320834Y-10559808D01*
X31518764Y-10499766D01*
X31660470Y-10424022D01*
X31247534Y-10011086D01*
X31257315Y-10009680D01*
X31388100Y-9949952D01*
X31496761Y-9855798D01*
X31574493Y-9734844D01*
X31598077Y-9654523D01*
X32014022Y-10070469D01*
X32089766Y-9928764D01*
X32149808Y-9730834D01*
X32170080Y-9525000D01*
X32149808Y-9319165D01*
X32089766Y-9121235D01*
X32014022Y-8979529D01*
X31598076Y-9395474D01*
X31574493Y-9315156D01*
X31496761Y-9194202D01*
X31388100Y-9100048D01*
X31257315Y-9040320D01*
X31247532Y-9038913D01*
X31660469Y-8625976D01*
X31660469Y-8625975D01*
X31518766Y-8550233D01*
X31320834Y-8490191D01*
X31161562Y-8474505D01*
X31096775Y-8448344D01*
X31056416Y-8391310D01*
X31053299Y-8321510D01*
X31086033Y-8263423D01*
X31298775Y-8050681D01*
X31350456Y-8019705D01*
X31522031Y-7967659D01*
X31705917Y-7869369D01*
X31867094Y-7737094D01*
X31999369Y-7575917D01*
X32097659Y-7392031D01*
X32158185Y-7192502D01*
X32178622Y-6985000D01*
X32158185Y-6777498D01*
X32097659Y-6577969D01*
X31999369Y-6394083D01*
X31960381Y-6346576D01*
X31867094Y-6232905D01*
X31705920Y-6100633D01*
X31705918Y-6100632D01*
X31705917Y-6100631D01*
X31522031Y-6002341D01*
X31450032Y-5980500D01*
X31322501Y-5941814D01*
X31169337Y-5926729D01*
X31104550Y-5900568D01*
X31064192Y-5843533D01*
X31061075Y-5773733D01*
X31093809Y-5715647D01*
X31298775Y-5510681D01*
X31350456Y-5479705D01*
X31522031Y-5427659D01*
X31705917Y-5329369D01*
X31867094Y-5197094D01*
X31999369Y-5035917D01*
X32097659Y-4852031D01*
X32158185Y-4652502D01*
X32178622Y-4445000D01*
X32158185Y-4237498D01*
X32097659Y-4037969D01*
X32015337Y-3883958D01*
X32000865Y-3831994D01*
X31998585Y-3788489D01*
X31998500Y-3785243D01*
X31998500Y-3763694D01*
X31998302Y-3761815D01*
X31996244Y-3742242D01*
X31995992Y-3739029D01*
X31994969Y-3719507D01*
X31992429Y-3671028D01*
X31992428Y-3671024D01*
X31988920Y-3657932D01*
X31985372Y-3638791D01*
X31984368Y-3629241D01*
X31983954Y-3625298D01*
X31962905Y-3560517D01*
X31961987Y-3557416D01*
X31944362Y-3491638D01*
X31944362Y-3491637D01*
X31938201Y-3479547D01*
X31930753Y-3461564D01*
X31926564Y-3448669D01*
X31892513Y-3389691D01*
X31890968Y-3386846D01*
X31890883Y-3386680D01*
X31860047Y-3326160D01*
X31852224Y-3316500D01*
X31851508Y-3315615D01*
X31840486Y-3299578D01*
X31833704Y-3287831D01*
X31806968Y-3258138D01*
X31788134Y-3237220D01*
X31786026Y-3234751D01*
X31772472Y-3218014D01*
X31757243Y-3202785D01*
X31755007Y-3200429D01*
X31709434Y-3149815D01*
X31709432Y-3149813D01*
X31698450Y-3141834D01*
X31683657Y-3129199D01*
X30248298Y-1693840D01*
X30235660Y-1679043D01*
X30227685Y-1668066D01*
X30227684Y-1668066D01*
X30177053Y-1622477D01*
X30174714Y-1620256D01*
X30159490Y-1605032D01*
X30159477Y-1605020D01*
X30142743Y-1591469D01*
X30140276Y-1589362D01*
X30106869Y-1559283D01*
X30089669Y-1543796D01*
X30086329Y-1541868D01*
X30077911Y-1537007D01*
X30061876Y-1525986D01*
X30051344Y-1517457D01*
X30051343Y-1517456D01*
X30051339Y-1517453D01*
X30046884Y-1515183D01*
X29990657Y-1486533D01*
X29987804Y-1484984D01*
X29928832Y-1450936D01*
X29928825Y-1450933D01*
X29915924Y-1446741D01*
X29897956Y-1439299D01*
X29885861Y-1433137D01*
X29820072Y-1415508D01*
X29816960Y-1414587D01*
X29752208Y-1393547D01*
X29752196Y-1393545D01*
X29738702Y-1392126D01*
X29719588Y-1388583D01*
X29706474Y-1385070D01*
X29706470Y-1385069D01*
X29638457Y-1381504D01*
X29635225Y-1381250D01*
X29620565Y-1379710D01*
X29613806Y-1379000D01*
X29613802Y-1379000D01*
X29592274Y-1379000D01*
X29589030Y-1378915D01*
X29521007Y-1375350D01*
X29521006Y-1375350D01*
X29521005Y-1375350D01*
X29507603Y-1377473D01*
X29488204Y-1379000D01*
X25688199Y-1379000D01*
X25623102Y-1360538D01*
X25537746Y-1307889D01*
X25537740Y-1307886D01*
X25537738Y-1307885D01*
X25537735Y-1307884D01*
X25369427Y-1252113D01*
X25265546Y-1241500D01*
X24264462Y-1241500D01*
X24264446Y-1241501D01*
X24160572Y-1252113D01*
X23992264Y-1307884D01*
X23992257Y-1307887D01*
X23974383Y-1318912D01*
X23967694Y-1323038D01*
X23902598Y-1341500D01*
X23584640Y-1341500D01*
X23517601Y-1321815D01*
X23501668Y-1309650D01*
X23452069Y-1264991D01*
X23449714Y-1262756D01*
X23434490Y-1247532D01*
X23434477Y-1247520D01*
X23417743Y-1233969D01*
X23415276Y-1231862D01*
X23400759Y-1218792D01*
X23364669Y-1186296D01*
X23361329Y-1184368D01*
X23352911Y-1179507D01*
X23336876Y-1168486D01*
X23326344Y-1159957D01*
X23326343Y-1159956D01*
X23326339Y-1159953D01*
X23312507Y-1152905D01*
X23265657Y-1129033D01*
X23262804Y-1127484D01*
X23203832Y-1093436D01*
X23203825Y-1093433D01*
X23190924Y-1089241D01*
X23172956Y-1081799D01*
X23160861Y-1075637D01*
X23095072Y-1058008D01*
X23091960Y-1057087D01*
X23027208Y-1036047D01*
X23027196Y-1036045D01*
X23013702Y-1034626D01*
X22994588Y-1031083D01*
X22981474Y-1027570D01*
X22981470Y-1027569D01*
X22913457Y-1024004D01*
X22910225Y-1023750D01*
X22895565Y-1022210D01*
X22888806Y-1021500D01*
X22888802Y-1021500D01*
X22867274Y-1021500D01*
X22864030Y-1021415D01*
X22796007Y-1017850D01*
X22796006Y-1017850D01*
X22796005Y-1017850D01*
X22782603Y-1019973D01*
X22763204Y-1021500D01*
X18530179Y-1021500D01*
X18526934Y-1021415D01*
X18523891Y-1021255D01*
X18480956Y-1019004D01*
X18477725Y-1018750D01*
X18463065Y-1017210D01*
X18456306Y-1016500D01*
X18456302Y-1016500D01*
X18434774Y-1016500D01*
X18431530Y-1016415D01*
X18363507Y-1012850D01*
X18363506Y-1012850D01*
X18363505Y-1012850D01*
X18350103Y-1014973D01*
X18330704Y-1016500D01*
X10244296Y-1016500D01*
X10224896Y-1014973D01*
X10211493Y-1012850D01*
X10143469Y-1016415D01*
X10140226Y-1016500D01*
X10118694Y-1016500D01*
X10110290Y-1017383D01*
X10097275Y-1018750D01*
X10094044Y-1019004D01*
X10051327Y-1021244D01*
X10048065Y-1021415D01*
X10044821Y-1021500D01*
X8969290Y-1021500D01*
X8949891Y-1019973D01*
X8936493Y-1017851D01*
X8868482Y-1021415D01*
X8865239Y-1021500D01*
X8843694Y-1021500D01*
X8837838Y-1022115D01*
X8822264Y-1023751D01*
X8819033Y-1024005D01*
X8751030Y-1027569D01*
X8751029Y-1027569D01*
X8737910Y-1031084D01*
X8718798Y-1034626D01*
X8705303Y-1036045D01*
X8705291Y-1036047D01*
X8650809Y-1053749D01*
X8640534Y-1057088D01*
X8637432Y-1058007D01*
X8571642Y-1075635D01*
X8571635Y-1075638D01*
X8559537Y-1081802D01*
X8541579Y-1089240D01*
X8535278Y-1091288D01*
X8528668Y-1093436D01*
X8528663Y-1093438D01*
X8490283Y-1115597D01*
X8469672Y-1127497D01*
X8466843Y-1129033D01*
X8406159Y-1159954D01*
X8406152Y-1159958D01*
X8395604Y-1168499D01*
X8379586Y-1179508D01*
X8367832Y-1186294D01*
X8317216Y-1231867D01*
X8314752Y-1233972D01*
X8298024Y-1247519D01*
X8298004Y-1247536D01*
X8282770Y-1262770D01*
X8280420Y-1264999D01*
X8229812Y-1310567D01*
X8221831Y-1321552D01*
X8209199Y-1336341D01*
X8113718Y-1431822D01*
X8052395Y-1465307D01*
X7982703Y-1460323D01*
X7926770Y-1418451D01*
X7916682Y-1402599D01*
X7869369Y-1314083D01*
X7869368Y-1314081D01*
X7737094Y-1152905D01*
X7575920Y-1020633D01*
X7575918Y-1020632D01*
X7575917Y-1020631D01*
X7392031Y-922341D01*
X7292266Y-892078D01*
X7192500Y-861814D01*
X6985000Y-841378D01*
X6777499Y-861814D01*
X6577966Y-922342D01*
X6483532Y-972818D01*
X6419849Y-1006858D01*
X6361397Y-1021500D01*
X4484290Y-1021500D01*
X4464891Y-1019973D01*
X4451493Y-1017851D01*
X4383482Y-1021415D01*
X4380239Y-1021500D01*
X4358694Y-1021500D01*
X4352838Y-1022115D01*
X4337264Y-1023751D01*
X4334033Y-1024005D01*
X4266030Y-1027569D01*
X4266029Y-1027569D01*
X4252910Y-1031084D01*
X4233798Y-1034626D01*
X4220303Y-1036045D01*
X4220291Y-1036047D01*
X4165809Y-1053749D01*
X4155534Y-1057088D01*
X4152432Y-1058007D01*
X4086642Y-1075635D01*
X4086635Y-1075638D01*
X4074537Y-1081802D01*
X4056579Y-1089240D01*
X4050278Y-1091288D01*
X4043668Y-1093436D01*
X4043663Y-1093438D01*
X4005283Y-1115597D01*
X3984672Y-1127497D01*
X3981843Y-1129033D01*
X3921159Y-1159954D01*
X3921152Y-1159958D01*
X3910604Y-1168499D01*
X3894586Y-1179508D01*
X3882832Y-1186294D01*
X3832216Y-1231867D01*
X3829752Y-1233972D01*
X3813024Y-1247519D01*
X3813004Y-1247536D01*
X3797770Y-1262770D01*
X3795420Y-1264999D01*
X3744812Y-1310567D01*
X3736831Y-1321552D01*
X3724199Y-1336341D01*
X1696224Y-3364316D01*
X1644539Y-3395295D01*
X1472969Y-3447340D01*
X1289079Y-3545633D01*
X1127905Y-3677905D01*
X995633Y-3839079D01*
X897342Y-4022966D01*
X836814Y-4222499D01*
X816378Y-4430000D01*
X836814Y-4637500D01*
X862593Y-4722481D01*
X897341Y-4837031D01*
X974799Y-4981944D01*
X995633Y-5020920D01*
X1127905Y-5182094D01*
X1288382Y-5313794D01*
X1289083Y-5314369D01*
X1352348Y-5348185D01*
X1403661Y-5375613D01*
X1453505Y-5424576D01*
X1468965Y-5492714D01*
X1445133Y-5558393D01*
X1432888Y-5572652D01*
X1311338Y-5694202D01*
X1296549Y-5706834D01*
X1285568Y-5714812D01*
X1285563Y-5714817D01*
X1239999Y-5765420D01*
X1237770Y-5767770D01*
X1222536Y-5783004D01*
X1222519Y-5783024D01*
X1208972Y-5799752D01*
X1206867Y-5802216D01*
X1161294Y-5852832D01*
X1154508Y-5864586D01*
X1143499Y-5880604D01*
X1134958Y-5891152D01*
X1134954Y-5891159D01*
X1104033Y-5951843D01*
X1102497Y-5954672D01*
X1090597Y-5975283D01*
X1068438Y-6013663D01*
X1068436Y-6013668D01*
X1064242Y-6026576D01*
X1056802Y-6044537D01*
X1050638Y-6056635D01*
X1050635Y-6056642D01*
X1033007Y-6122432D01*
X1032086Y-6125543D01*
X1011047Y-6190291D01*
X1011045Y-6190303D01*
X1009626Y-6203798D01*
X1006084Y-6222910D01*
X1002570Y-6236027D01*
X1002569Y-6236032D01*
X999004Y-6304044D01*
X998750Y-6307276D01*
X996500Y-6328698D01*
X996500Y-6346395D01*
X981858Y-6404848D01*
X897342Y-6562964D01*
X836814Y-6762499D01*
X816378Y-6969999D01*
X836814Y-7177500D01*
X850293Y-7221934D01*
X897341Y-7377031D01*
X948243Y-7472262D01*
X995633Y-7560920D01*
X1127905Y-7722094D01*
X1288575Y-7853952D01*
X1289083Y-7854369D01*
X1472969Y-7952659D01*
X1672498Y-8013185D01*
X1880000Y-8033622D01*
X2087502Y-8013185D01*
X2287031Y-7952659D01*
X2470917Y-7854369D01*
X2632094Y-7722094D01*
X2764369Y-7560917D01*
X2862659Y-7377031D01*
X2923185Y-7177502D01*
X2943622Y-6970000D01*
X2923185Y-6762498D01*
X2902579Y-6694571D01*
X2901957Y-6624705D01*
X2933558Y-6570898D01*
X3318024Y-6186432D01*
X3379345Y-6152949D01*
X3449037Y-6157933D01*
X3504970Y-6199805D01*
X3515056Y-6215654D01*
X3560631Y-6300917D01*
X3560633Y-6300920D01*
X3692905Y-6462094D01*
X3838217Y-6581348D01*
X3854083Y-6594369D01*
X4037969Y-6692659D01*
X4237498Y-6753185D01*
X4445000Y-6773622D01*
X4652502Y-6753185D01*
X4852031Y-6692659D01*
X5010150Y-6608141D01*
X5068603Y-6593500D01*
X5292680Y-6593500D01*
X5359719Y-6613185D01*
X5380361Y-6629819D01*
X5905361Y-7154819D01*
X5938846Y-7216142D01*
X5933862Y-7285834D01*
X5891990Y-7341767D01*
X5826526Y-7366184D01*
X5817680Y-7366500D01*
X5068603Y-7366500D01*
X5010150Y-7351858D01*
X4852031Y-7267341D01*
X4752266Y-7237078D01*
X4652500Y-7206814D01*
X4445000Y-7186378D01*
X4237499Y-7206814D01*
X4037966Y-7267342D01*
X3854079Y-7365633D01*
X3692905Y-7497905D01*
X3560633Y-7659079D01*
X3462342Y-7842966D01*
X3401814Y-8042499D01*
X3381378Y-8250000D01*
X3401814Y-8457500D01*
X3423403Y-8528669D01*
X3462341Y-8657031D01*
X3544910Y-8811506D01*
X3560633Y-8840920D01*
X3692905Y-9002094D01*
X3854079Y-9134366D01*
X3854083Y-9134369D01*
X4037969Y-9232659D01*
X4237498Y-9293185D01*
X4445000Y-9313622D01*
X4652502Y-9293185D01*
X4852031Y-9232659D01*
X5010150Y-9148141D01*
X5068603Y-9133500D01*
X5839318Y-9133500D01*
X5906357Y-9153185D01*
X5952112Y-9205989D01*
X5962056Y-9275147D01*
X5957978Y-9293496D01*
X5950192Y-9319162D01*
X5929919Y-9525000D01*
X5950191Y-9730834D01*
X6010233Y-9928766D01*
X6085975Y-10070469D01*
X6085976Y-10070469D01*
X6501922Y-9654522D01*
X6525507Y-9734844D01*
X6603239Y-9855798D01*
X6711900Y-9949952D01*
X6842685Y-10009680D01*
X6852464Y-10011086D01*
X6439528Y-10424023D01*
X6581233Y-10499766D01*
X6779165Y-10559808D01*
X6985000Y-10580080D01*
X7190834Y-10559808D01*
X7388766Y-10499766D01*
X7571158Y-10402276D01*
X7571983Y-10401725D01*
X7572482Y-10401568D01*
X7576545Y-10399397D01*
X7576956Y-10400166D01*
X7638657Y-10380836D01*
X7706040Y-10399310D01*
X7746429Y-10439719D01*
X7822680Y-10563340D01*
X7822683Y-10563344D01*
X7946655Y-10687316D01*
X7952323Y-10691798D01*
X7950592Y-10693986D01*
X7988749Y-10736390D01*
X7999987Y-10805350D01*
X7972158Y-10869438D01*
X7946894Y-10891336D01*
X7947015Y-10891489D01*
X7943627Y-10894167D01*
X7942043Y-10895541D01*
X7941350Y-10895968D01*
X7941347Y-10895970D01*
X7815970Y-11021347D01*
X7815967Y-11021351D01*
X7753518Y-11122597D01*
X7701570Y-11169322D01*
X7647980Y-11181500D01*
X7608603Y-11181500D01*
X7550150Y-11166858D01*
X7392031Y-11082341D01*
X7281576Y-11048835D01*
X7192500Y-11021814D01*
X6985000Y-11001378D01*
X6777499Y-11021814D01*
X6577966Y-11082342D01*
X6483532Y-11132818D01*
X6419849Y-11166858D01*
X6361397Y-11181500D01*
X4852319Y-11181500D01*
X4785280Y-11161815D01*
X4764638Y-11145181D01*
X2945684Y-9326226D01*
X2914704Y-9274540D01*
X2911825Y-9265048D01*
X2862659Y-9102969D01*
X2764369Y-8919083D01*
X2764366Y-8919079D01*
X2632094Y-8757905D01*
X2470920Y-8625633D01*
X2470918Y-8625632D01*
X2470917Y-8625631D01*
X2289525Y-8528674D01*
X2287033Y-8527342D01*
X2287032Y-8527341D01*
X2287031Y-8527341D01*
X2152903Y-8486654D01*
X2087500Y-8466814D01*
X1880000Y-8446378D01*
X1672499Y-8466814D01*
X1472966Y-8527342D01*
X1289079Y-8625633D01*
X1127905Y-8757905D01*
X995633Y-8919079D01*
X897342Y-9102966D01*
X836814Y-9302499D01*
X816378Y-9510000D01*
X500Y-9510000D01*
X500Y-124500D01*
X20185Y-57461D01*
X72989Y-11706D01*
X124500Y-500D01*
X32895500Y-500D01*
X32962539Y-20185D01*
G37*
%TD.AperFunction*%
%TD*%
%TA.AperFunction,NonConductor*%
G36*
X19859718Y-2808185D02*
G01*
X19905473Y-2860989D01*
X19915417Y-2930147D01*
X19886392Y-2993703D01*
X19880360Y-3000181D01*
X19684353Y-3196187D01*
X19623030Y-3229672D01*
X19553338Y-3224688D01*
X19497405Y-3182816D01*
X19473270Y-3120662D01*
X19458185Y-2967498D01*
X19452420Y-2948496D01*
X19451796Y-2878630D01*
X19489044Y-2819516D01*
X19552338Y-2789925D01*
X19571081Y-2788500D01*
X19792679Y-2788500D01*
X19859718Y-2808185D01*
G37*
%TD.AperFunction*%
%TA.AperFunction,NonConductor*%
G36*
X22810410Y-3039567D02*
G01*
X22814064Y-3040754D01*
X22832042Y-3048199D01*
X22844137Y-3054362D01*
X22853217Y-3056795D01*
X22912878Y-3093158D01*
X22943409Y-3156004D01*
X22935116Y-3225380D01*
X22890632Y-3279259D01*
X22859444Y-3294501D01*
X22810417Y-3310431D01*
X22772099Y-3316500D01*
X22657500Y-3316500D01*
X22590461Y-3296815D01*
X22544706Y-3244011D01*
X22533500Y-3192500D01*
X22533500Y-3157500D01*
X22553185Y-3090461D01*
X22605989Y-3044706D01*
X22657500Y-3033500D01*
X22772099Y-3033500D01*
X22810410Y-3039567D01*
G37*
%TD.AperFunction*%
%TA.AperFunction,NonConductor*%
G36*
X9705958Y-2808185D02*
G01*
X9751713Y-2860989D01*
X9761657Y-2930147D01*
X9757579Y-2948497D01*
X9751814Y-2967497D01*
X9731378Y-3174999D01*
X9751814Y-3382500D01*
X9771886Y-3448667D01*
X9812341Y-3582031D01*
X9875374Y-3699957D01*
X9881344Y-3711125D01*
X9895586Y-3779528D01*
X9870586Y-3844772D01*
X9814282Y-3886143D01*
X9744548Y-3890505D01*
X9706889Y-3875118D01*
X9662740Y-3847886D01*
X9662735Y-3847884D01*
X9494427Y-3792113D01*
X9390552Y-3781500D01*
X9390545Y-3781500D01*
X9163578Y-3781500D01*
X9096539Y-3761815D01*
X9080606Y-3749650D01*
X9054669Y-3726296D01*
X9051329Y-3724368D01*
X9042911Y-3719507D01*
X9026876Y-3708486D01*
X9016344Y-3699957D01*
X9016343Y-3699956D01*
X9016339Y-3699953D01*
X9002507Y-3692905D01*
X8955657Y-3669033D01*
X8952804Y-3667484D01*
X8893832Y-3633436D01*
X8893825Y-3633433D01*
X8880924Y-3629241D01*
X8862956Y-3621799D01*
X8850861Y-3615637D01*
X8785072Y-3598008D01*
X8781968Y-3597089D01*
X8757332Y-3589085D01*
X8721869Y-3577562D01*
X8664194Y-3538125D01*
X8636995Y-3473766D01*
X8648910Y-3404920D01*
X8672502Y-3371954D01*
X9219638Y-2824819D01*
X9280962Y-2791334D01*
X9307320Y-2788500D01*
X9638919Y-2788500D01*
X9705958Y-2808185D01*
G37*
%TD.AperFunction*%
%TA.AperFunction,NonConductor*%
G36*
X29217219Y-3165685D02*
G01*
X29237861Y-3182319D01*
X30070748Y-4015206D01*
X30104233Y-4076529D01*
X30101728Y-4138880D01*
X30080296Y-4209536D01*
X30049316Y-4261224D01*
X29844353Y-4466187D01*
X29783030Y-4499672D01*
X29713338Y-4494688D01*
X29657405Y-4452816D01*
X29633270Y-4390662D01*
X29618185Y-4237498D01*
X29557659Y-4037969D01*
X29459369Y-3854083D01*
X29459366Y-3854079D01*
X29327094Y-3692905D01*
X29165920Y-3560633D01*
X29165918Y-3560632D01*
X29165917Y-3560631D01*
X29009303Y-3476918D01*
X28982033Y-3462342D01*
X28982032Y-3462341D01*
X28982031Y-3462341D01*
X28799649Y-3407016D01*
X28752674Y-3380506D01*
X28734839Y-3364447D01*
X28736130Y-3363012D01*
X28699098Y-3314989D01*
X28693118Y-3245376D01*
X28725724Y-3183581D01*
X28786562Y-3149223D01*
X28814649Y-3146000D01*
X29150180Y-3146000D01*
X29217219Y-3165685D01*
G37*
%TD.AperFunction*%
%TA.AperFunction,NonConductor*%
G36*
X17849849Y-4073141D02*
G01*
X18007969Y-4157659D01*
X18207498Y-4218185D01*
X18415000Y-4238622D01*
X18622502Y-4218185D01*
X18622504Y-4218184D01*
X18622506Y-4218184D01*
X18628477Y-4216997D01*
X18628722Y-4218229D01*
X18692022Y-4217654D01*
X18751141Y-4254893D01*
X18780742Y-4318182D01*
X18781490Y-4349903D01*
X18775584Y-4406102D01*
X18773073Y-4430000D01*
X18771496Y-4445000D01*
X18781333Y-4538596D01*
X18781491Y-4540094D01*
X18768921Y-4608823D01*
X18721189Y-4659847D01*
X18653449Y-4676965D01*
X18628521Y-4672781D01*
X18628477Y-4673003D01*
X18622506Y-4671815D01*
X18415000Y-4651378D01*
X18414999Y-4651378D01*
X18220544Y-4670529D01*
X18151898Y-4657510D01*
X18143294Y-4652665D01*
X17997740Y-4562886D01*
X17997735Y-4562884D01*
X17829427Y-4507113D01*
X17725546Y-4496500D01*
X17099462Y-4496500D01*
X17099446Y-4496501D01*
X16995572Y-4507113D01*
X16827264Y-4562884D01*
X16827259Y-4562886D01*
X16697581Y-4642873D01*
X16630188Y-4661313D01*
X16563525Y-4640390D01*
X16518755Y-4586748D01*
X16510094Y-4517417D01*
X16540291Y-4454410D01*
X16544784Y-4449672D01*
X16899638Y-4094818D01*
X16960961Y-4061334D01*
X16987319Y-4058500D01*
X17791397Y-4058500D01*
X17849849Y-4073141D01*
G37*
%TD.AperFunction*%
%TA.AperFunction,NonConductor*%
G36*
X5895958Y-4078185D02*
G01*
X5941713Y-4130989D01*
X5951657Y-4200147D01*
X5947579Y-4218497D01*
X5941814Y-4237497D01*
X5921378Y-4445000D01*
X5941814Y-4652500D01*
X5941815Y-4652502D01*
X5947283Y-4670529D01*
X5947533Y-4671351D01*
X5948156Y-4741218D01*
X5910908Y-4800330D01*
X5847614Y-4829921D01*
X5822380Y-4831176D01*
X5780956Y-4829004D01*
X5777725Y-4828750D01*
X5763065Y-4827210D01*
X5756306Y-4826500D01*
X5756302Y-4826500D01*
X5734774Y-4826500D01*
X5731530Y-4826415D01*
X5663507Y-4822850D01*
X5663506Y-4822850D01*
X5663505Y-4822850D01*
X5650103Y-4824973D01*
X5630704Y-4826500D01*
X5068603Y-4826500D01*
X5010150Y-4811858D01*
X4950661Y-4780060D01*
X4900818Y-4731098D01*
X4885358Y-4662960D01*
X4909190Y-4597281D01*
X4921435Y-4583022D01*
X5120474Y-4383984D01*
X5409638Y-4094819D01*
X5470962Y-4061334D01*
X5497320Y-4058500D01*
X5828919Y-4058500D01*
X5895958Y-4078185D01*
G37*
%TD.AperFunction*%
%TA.AperFunction,NonConductor*%
G36*
X7709179Y-5348185D02*
G01*
X7747679Y-5387403D01*
X7747884Y-5387735D01*
X7747885Y-5387738D01*
X7840970Y-5538652D01*
X7840972Y-5538654D01*
X7844477Y-5543086D01*
X7870619Y-5607881D01*
X7857581Y-5676523D01*
X7809502Y-5727220D01*
X7747213Y-5744000D01*
X7119247Y-5744000D01*
X7052208Y-5724315D01*
X7006453Y-5671511D01*
X6996509Y-5602353D01*
X7025534Y-5538797D01*
X7084312Y-5501023D01*
X7107093Y-5496597D01*
X7113097Y-5496005D01*
X7192502Y-5488185D01*
X7392031Y-5427659D01*
X7550150Y-5343141D01*
X7608603Y-5328500D01*
X7642140Y-5328500D01*
X7709179Y-5348185D01*
G37*
%TD.AperFunction*%
%TA.AperFunction,NonConductor*%
G36*
X21859539Y-4003185D02*
G01*
X21905294Y-4055989D01*
X21916500Y-4107500D01*
X21916500Y-4341507D01*
X21919437Y-4378829D01*
X21919438Y-4378835D01*
X21965853Y-4538596D01*
X21965855Y-4538601D01*
X22050544Y-4681803D01*
X22050551Y-4681812D01*
X22168187Y-4799448D01*
X22168196Y-4799455D01*
X22197806Y-4816966D01*
X22311399Y-4884145D01*
X22349785Y-4895297D01*
X22471164Y-4930561D01*
X22471167Y-4930561D01*
X22471169Y-4930562D01*
X22508498Y-4933500D01*
X22772099Y-4933500D01*
X22810417Y-4939569D01*
X22879665Y-4962069D01*
X22937341Y-5001506D01*
X22964539Y-5065865D01*
X22952624Y-5134711D01*
X22905380Y-5186187D01*
X22879665Y-5197931D01*
X22810417Y-5220431D01*
X22772099Y-5226500D01*
X22508492Y-5226500D01*
X22471170Y-5229437D01*
X22471164Y-5229438D01*
X22311403Y-5275853D01*
X22311398Y-5275855D01*
X22168196Y-5360544D01*
X22168187Y-5360551D01*
X22050551Y-5478187D01*
X22050544Y-5478196D01*
X21965855Y-5621398D01*
X21965853Y-5621403D01*
X21919438Y-5781164D01*
X21919437Y-5781170D01*
X21916500Y-5818492D01*
X21916500Y-6052500D01*
X21896815Y-6119539D01*
X21844011Y-6165294D01*
X21792500Y-6176500D01*
X21677901Y-6176500D01*
X21639583Y-6170431D01*
X21482952Y-6119539D01*
X21472204Y-6116046D01*
X21472203Y-6116046D01*
X21449136Y-6113621D01*
X21333806Y-6101500D01*
X21333801Y-6101500D01*
X20737320Y-6101500D01*
X20670281Y-6081815D01*
X20649639Y-6065181D01*
X20047096Y-5462638D01*
X20013611Y-5401315D01*
X20018595Y-5331623D01*
X20060467Y-5275690D01*
X20084335Y-5261681D01*
X20141752Y-5236118D01*
X20296253Y-5123866D01*
X20398187Y-5010657D01*
X20424036Y-4981949D01*
X20424036Y-4981947D01*
X20424040Y-4981944D01*
X20452116Y-4933312D01*
X20471815Y-4907641D01*
X21288401Y-4091056D01*
X21349722Y-4057573D01*
X21363099Y-4055421D01*
X21472202Y-4043954D01*
X21639582Y-3989569D01*
X21677901Y-3983500D01*
X21792500Y-3983500D01*
X21859539Y-4003185D01*
G37*
%TD.AperFunction*%
%TA.AperFunction,NonConductor*%
G36*
X14546157Y-4365615D02*
G01*
X14667682Y-4487139D01*
X14701166Y-4548460D01*
X14704000Y-4574819D01*
X14704000Y-4781799D01*
X14685539Y-4846895D01*
X14632883Y-4932263D01*
X14632883Y-4932264D01*
X14577113Y-5100570D01*
X14577113Y-5100571D01*
X14566500Y-5204447D01*
X14566500Y-6205537D01*
X14566501Y-6205553D01*
X14577113Y-6309427D01*
X14583499Y-6328698D01*
X14627701Y-6462094D01*
X14633243Y-6478817D01*
X14635645Y-6548646D01*
X14599913Y-6608687D01*
X14537392Y-6639880D01*
X14467933Y-6632319D01*
X14413587Y-6588406D01*
X14409999Y-6582919D01*
X14409030Y-6581348D01*
X14283652Y-6455970D01*
X14277399Y-6452113D01*
X14230676Y-6400164D01*
X14218499Y-6346576D01*
X14218499Y-5783004D01*
X14218499Y-5159276D01*
X14220025Y-5139898D01*
X14222149Y-5126493D01*
X14218584Y-5058481D01*
X14218500Y-5055238D01*
X14218500Y-5033693D01*
X14216248Y-5012277D01*
X14215993Y-5009037D01*
X14215598Y-5001506D01*
X14212430Y-4941029D01*
X14210081Y-4932262D01*
X14208918Y-4927921D01*
X14205372Y-4908795D01*
X14203954Y-4895298D01*
X14182906Y-4830520D01*
X14181993Y-4827441D01*
X14164362Y-4761637D01*
X14158199Y-4749542D01*
X14150755Y-4731569D01*
X14149381Y-4727341D01*
X14146564Y-4718669D01*
X14112505Y-4659678D01*
X14110956Y-4656824D01*
X14080047Y-4596161D01*
X14071510Y-4585619D01*
X14059974Y-4568683D01*
X14059927Y-4568600D01*
X14044022Y-4500564D01*
X14067425Y-4434731D01*
X14122705Y-4392000D01*
X14167828Y-4383499D01*
X14203037Y-4383499D01*
X14203044Y-4383499D01*
X14306926Y-4372887D01*
X14419477Y-4335591D01*
X14489302Y-4333190D01*
X14546157Y-4365615D01*
G37*
%TD.AperFunction*%
%TA.AperFunction,NonConductor*%
G36*
X30018663Y-6610323D02*
G01*
X30067118Y-6660661D01*
X30080667Y-6729204D01*
X30055008Y-6794192D01*
X30044855Y-6805685D01*
X29844353Y-7006187D01*
X29783030Y-7039672D01*
X29713338Y-7034688D01*
X29657405Y-6992816D01*
X29633270Y-6930662D01*
X29618185Y-6777498D01*
X29617096Y-6773909D01*
X29613635Y-6762498D01*
X29612420Y-6758496D01*
X29611796Y-6688630D01*
X29649044Y-6629516D01*
X29712338Y-6599925D01*
X29731081Y-6598500D01*
X29765704Y-6598500D01*
X29785103Y-6600026D01*
X29798507Y-6602150D01*
X29866530Y-6598584D01*
X29869774Y-6598500D01*
X29891306Y-6598500D01*
X29912734Y-6596247D01*
X29915940Y-6595994D01*
X29950685Y-6594174D01*
X30018663Y-6610323D01*
G37*
%TD.AperFunction*%
%TA.AperFunction,NonConductor*%
G36*
X22810417Y-6849569D02*
G01*
X22864276Y-6867069D01*
X22921952Y-6906507D01*
X22949150Y-6970865D01*
X22937235Y-7039712D01*
X22889991Y-7091187D01*
X22864276Y-7102931D01*
X22810417Y-7120431D01*
X22772099Y-7126500D01*
X22657500Y-7126500D01*
X22590461Y-7106815D01*
X22544706Y-7054011D01*
X22533500Y-7002500D01*
X22533500Y-6967500D01*
X22553185Y-6900461D01*
X22605989Y-6854706D01*
X22657500Y-6843500D01*
X22772099Y-6843500D01*
X22810417Y-6849569D01*
G37*
%TD.AperFunction*%
%TA.AperFunction,NonConductor*%
G36*
X16671914Y-6750523D02*
G01*
X16676343Y-6754025D01*
X16676348Y-6754030D01*
X16827262Y-6847115D01*
X16850171Y-6854706D01*
X16857981Y-6857294D01*
X16915426Y-6897067D01*
X16942249Y-6961583D01*
X16929934Y-7030359D01*
X16882391Y-7081559D01*
X16857981Y-7092706D01*
X16827264Y-7102884D01*
X16827259Y-7102886D01*
X16676346Y-7195971D01*
X16671908Y-7199481D01*
X16607112Y-7225620D01*
X16538471Y-7212578D01*
X16487776Y-7164497D01*
X16470999Y-7102213D01*
X16470999Y-6847786D01*
X16490684Y-6780747D01*
X16543488Y-6734992D01*
X16612646Y-6725048D01*
X16671914Y-6750523D01*
G37*
%TD.AperFunction*%
%TA.AperFunction,NonConductor*%
G36*
X18844792Y-6759250D02*
G01*
X19245361Y-7159819D01*
X19278846Y-7221142D01*
X19273862Y-7290834D01*
X19231990Y-7346767D01*
X19166526Y-7371184D01*
X19157680Y-7371500D01*
X19038603Y-7371500D01*
X18980150Y-7356858D01*
X18822031Y-7272341D01*
X18722266Y-7242078D01*
X18622500Y-7211814D01*
X18415000Y-7191378D01*
X18414999Y-7191378D01*
X18220544Y-7210529D01*
X18151898Y-7197510D01*
X18143294Y-7192665D01*
X17997740Y-7102886D01*
X17997735Y-7102884D01*
X17995710Y-7102213D01*
X17967016Y-7092705D01*
X17909573Y-7052934D01*
X17882750Y-6988418D01*
X17895065Y-6919642D01*
X17942608Y-6868442D01*
X17967014Y-6857295D01*
X17997738Y-6847115D01*
X18116423Y-6773908D01*
X18183815Y-6755468D01*
X18205715Y-6757830D01*
X18207490Y-6758182D01*
X18207498Y-6758185D01*
X18415000Y-6778622D01*
X18622502Y-6758185D01*
X18721114Y-6728271D01*
X18790982Y-6727647D01*
X18844792Y-6759250D01*
G37*
%TD.AperFunction*%
%TA.AperFunction,NonConductor*%
G36*
X14485833Y-8054361D02*
G01*
X14541767Y-8096232D01*
X14566184Y-8161696D01*
X14566500Y-8170543D01*
X14566500Y-8351477D01*
X14546815Y-8418516D01*
X14494011Y-8464271D01*
X14424853Y-8474215D01*
X14361297Y-8445190D01*
X14354819Y-8439158D01*
X14278344Y-8362683D01*
X14272677Y-8358202D01*
X14274404Y-8356016D01*
X14236240Y-8313589D01*
X14225015Y-8244627D01*
X14252855Y-8180543D01*
X14278106Y-8158664D01*
X14277985Y-8158511D01*
X14281401Y-8155809D01*
X14282969Y-8154451D01*
X14283652Y-8154030D01*
X14354822Y-8082859D01*
X14416141Y-8049377D01*
X14485833Y-8054361D01*
G37*
%TD.AperFunction*%
%TA.AperFunction,NonConductor*%
G36*
X21859539Y-7813185D02*
G01*
X21905294Y-7865989D01*
X21916500Y-7917500D01*
X21916500Y-8151507D01*
X21919437Y-8188829D01*
X21919438Y-8188835D01*
X21965853Y-8348596D01*
X21965855Y-8348601D01*
X22050544Y-8491803D01*
X22050551Y-8491812D01*
X22168187Y-8609448D01*
X22168196Y-8609455D01*
X22215464Y-8637409D01*
X22311399Y-8694145D01*
X22349785Y-8705297D01*
X22471164Y-8740561D01*
X22471167Y-8740561D01*
X22471169Y-8740562D01*
X22508498Y-8743500D01*
X22772099Y-8743500D01*
X22810417Y-8749569D01*
X22879665Y-8772069D01*
X22937341Y-8811506D01*
X22964539Y-8875865D01*
X22952624Y-8944711D01*
X22905380Y-8996187D01*
X22879665Y-9007931D01*
X22810417Y-9030431D01*
X22772099Y-9036500D01*
X22508492Y-9036500D01*
X22471170Y-9039437D01*
X22471164Y-9039438D01*
X22311403Y-9085853D01*
X22311398Y-9085855D01*
X22168196Y-9170544D01*
X22168187Y-9170551D01*
X22050181Y-9288558D01*
X21988858Y-9322043D01*
X21919166Y-9317059D01*
X21863233Y-9275187D01*
X21838816Y-9209723D01*
X21838500Y-9200877D01*
X21838500Y-8969295D01*
X21840027Y-8949894D01*
X21840848Y-8944711D01*
X21842150Y-8936493D01*
X21838585Y-8868469D01*
X21838500Y-8865224D01*
X21838500Y-8843694D01*
X21837119Y-8830560D01*
X21836246Y-8822261D01*
X21835994Y-8819048D01*
X21835965Y-8818500D01*
X21832430Y-8751029D01*
X21830412Y-8743499D01*
X21828918Y-8737921D01*
X21825372Y-8718795D01*
X21823954Y-8705298D01*
X21802906Y-8640520D01*
X21801993Y-8637441D01*
X21784362Y-8571637D01*
X21778203Y-8559549D01*
X21770754Y-8541565D01*
X21766566Y-8528674D01*
X21766564Y-8528669D01*
X21732511Y-8469688D01*
X21730971Y-8466853D01*
X21700048Y-8406161D01*
X21691507Y-8395614D01*
X21680482Y-8379572D01*
X21673704Y-8367831D01*
X21656389Y-8348601D01*
X21628121Y-8317206D01*
X21626038Y-8314768D01*
X21612472Y-8298015D01*
X21597251Y-8282794D01*
X21595016Y-8280439D01*
X21549434Y-8229815D01*
X21538448Y-8221833D01*
X21523659Y-8209202D01*
X21381129Y-8066672D01*
X21347646Y-8005350D01*
X21352630Y-7935658D01*
X21394502Y-7879725D01*
X21455851Y-7855672D01*
X21472202Y-7853954D01*
X21639582Y-7799569D01*
X21677901Y-7793500D01*
X21792500Y-7793500D01*
X21859539Y-7813185D01*
G37*
%TD.AperFunction*%
%TA.AperFunction,NonConductor*%
G36*
X18205715Y-9297830D02*
G01*
X18207490Y-9298182D01*
X18207498Y-9298185D01*
X18335180Y-9310760D01*
X18360659Y-9313270D01*
X18425446Y-9339431D01*
X18465805Y-9396465D01*
X18468922Y-9466265D01*
X18436186Y-9524354D01*
X18264937Y-9695603D01*
X18203614Y-9729088D01*
X18133922Y-9724104D01*
X18112159Y-9713461D01*
X17997740Y-9642886D01*
X17997735Y-9642884D01*
X17995710Y-9642213D01*
X17967016Y-9632705D01*
X17909573Y-9592934D01*
X17882750Y-9528418D01*
X17895065Y-9459642D01*
X17942608Y-9408442D01*
X17967014Y-9397295D01*
X17997738Y-9387115D01*
X18116423Y-9313908D01*
X18183815Y-9295468D01*
X18205715Y-9297830D01*
G37*
%TD.AperFunction*%
%TA.AperFunction,NonConductor*%
G36*
X16671914Y-9290523D02*
G01*
X16676343Y-9294025D01*
X16676348Y-9294030D01*
X16827262Y-9387115D01*
X16855479Y-9396465D01*
X16857981Y-9397294D01*
X16915426Y-9437067D01*
X16942249Y-9501583D01*
X16929934Y-9570359D01*
X16882391Y-9621559D01*
X16857981Y-9632706D01*
X16827264Y-9642884D01*
X16827259Y-9642886D01*
X16676346Y-9735971D01*
X16671908Y-9739481D01*
X16607112Y-9765620D01*
X16538471Y-9752578D01*
X16487776Y-9704497D01*
X16470999Y-9642213D01*
X16470999Y-9387786D01*
X16490684Y-9320747D01*
X16543488Y-9274992D01*
X16612646Y-9265048D01*
X16671914Y-9290523D01*
G37*
%TD.AperFunction*%
%TA.AperFunction,NonConductor*%
G36*
X22810417Y-10659569D02*
G01*
X22864276Y-10677069D01*
X22921952Y-10716507D01*
X22949150Y-10780865D01*
X22937235Y-10849712D01*
X22889991Y-10901187D01*
X22864276Y-10912931D01*
X22810417Y-10930431D01*
X22772099Y-10936500D01*
X22657500Y-10936500D01*
X22590461Y-10916815D01*
X22544706Y-10864011D01*
X22533500Y-10812500D01*
X22533500Y-10777500D01*
X22553185Y-10710461D01*
X22605989Y-10664706D01*
X22657500Y-10653500D01*
X22772099Y-10653500D01*
X22810417Y-10659569D01*
G37*
%TD.AperFunction*%
M02*
