M48
; DRILL file {KiCad 7.0.5} date Wed Nov 22 17:00:07 2023
; FORMAT={-:-/ absolute / inch / decimal}
; #@! TF.CreationDate,2023-11-22T17:00:07-05:00
; #@! TF.GenerationSoftware,Kicad,Pcbnew,7.0.5
; #@! TF.FileFunction,MixedPlating,1,2
FMAT,2
INCH
; #@! TA.AperFunction,Plated,PTH,ViaDrill
T1C0.0157
; #@! TA.AperFunction,Plated,PTH,ComponentDrill
T2C0.0315
; #@! TA.AperFunction,Plated,PTH,ComponentDrill
T3C0.0394
%
G90
G05
T1
X0.775Y-0.175
X0.775Y-0.375
X1.05Y-0.225
X1.05Y-0.325
T2
X0.425Y-0.125
X0.425Y-0.225
X0.425Y-0.325
X0.425Y-0.425
X0.725Y-0.125
X0.725Y-0.225
X0.725Y-0.325
X0.725Y-0.425
T3
X0.074Y-0.1744
X0.074Y-0.2744
X0.074Y-0.3744
X0.175Y-0.2248
X0.175Y-0.3248
X0.275Y-0.075
X0.275Y-0.175
X0.275Y-0.275
X0.275Y-0.375
X0.275Y-0.475
X1.1248Y-0.475
X1.125Y-0.175
X1.125Y-0.275
X1.125Y-0.375
X1.2248Y-0.475
X1.225Y-0.175
X1.225Y-0.275
X1.225Y-0.375
T0
M30
