M48
; DRILL file {KiCad 7.0.5} date Mon Dec  4 17:25:32 2023
; FORMAT={-:-/ absolute / inch / decimal}
; #@! TF.CreationDate,2023-12-04T17:25:32-05:00
; #@! TF.GenerationSoftware,Kicad,Pcbnew,7.0.5
; #@! TF.FileFunction,MixedPlating,1,2
FMAT,2
INCH
; #@! TA.AperFunction,Plated,PTH,ViaDrill
T1C0.0157
; #@! TA.AperFunction,Plated,PTH,ComponentDrill
T2C0.0315
; #@! TA.AperFunction,Plated,PTH,ComponentDrill
T3C0.0394
; #@! TA.AperFunction,Plated,PTH,ComponentDrill
T4C0.0512
%
G90
G05
T1
X0.925Y-0.15
X0.925Y-0.5109
T2
X0.325Y-0.25
X0.325Y-0.35
X0.325Y-0.45
X0.325Y-0.55
X0.625Y-0.25
X0.625Y-0.35
X0.625Y-0.45
X0.625Y-0.55
X0.9Y-0.575
X0.9787Y-0.575
X1.0575Y-0.575
T3
X0.2Y-0.15
X0.2Y-0.25
X0.2Y-0.35
X0.2Y-0.45
X0.2Y-0.55
X0.35Y-0.125
X0.45Y-0.125
X0.55Y-0.125
X1.025Y-0.15
X1.025Y-0.25
X1.025Y-0.35
X1.0287Y-0.45
X1.125Y-0.15
X1.125Y-0.25
X1.125Y-0.35
X1.1287Y-0.45
T4
X0.8173Y-0.575
X1.1402Y-0.575
T0
M30
